<svg width="168" height="62" viewBox="0 0 168 62" fill="none" xmlns="http://www.w3.org/2000/svg">
<rect x="1.17285" y="0.5" width="165.836" height="61" rx="13.5" fill="white" stroke="#99CA3B"/>
<path d="M76.8005 19.488H72.4605V28H70.5845V17.99H78.6765V28H76.8005V19.488ZM80.8215 20.678H82.5155V21.854C82.7301 21.4807 83.0521 21.168 83.4815 20.916C83.9201 20.6547 84.3961 20.524 84.9095 20.524C85.8521 20.524 86.6268 20.86 87.2335 21.532C87.8495 22.1947 88.1575 23.1 88.1575 24.248V24.36C88.1575 25.5173 87.8541 26.4367 87.2475 27.118C86.6501 27.7993 85.8708 28.14 84.9095 28.14C84.3495 28.14 83.8595 28.0233 83.4395 27.79C83.0288 27.5473 82.7208 27.2347 82.5155 26.852V30.506H80.8215V20.678ZM84.4895 26.796C85.1148 26.796 85.5908 26.5907 85.9175 26.18C86.2535 25.7693 86.4215 25.172 86.4215 24.388V24.276C86.4215 23.492 86.2395 22.8947 85.8755 22.484C85.5208 22.064 85.0541 21.854 84.4755 21.854C83.8595 21.854 83.3695 22.0593 83.0055 22.47C82.6415 22.8807 82.4595 23.4827 82.4595 24.276V24.388C82.4595 25.1813 82.6368 25.7833 82.9915 26.194C83.3555 26.5953 83.8548 26.796 84.4895 26.796ZM92.9569 26.824C93.5915 26.824 94.0862 26.6093 94.4409 26.18C94.7955 25.7413 94.9729 25.144 94.9729 24.388V24.29C94.9729 23.534 94.7955 22.9413 94.4409 22.512C94.0862 22.0733 93.5915 21.854 92.9569 21.854C92.3222 21.854 91.8229 22.0687 91.4589 22.498C91.1042 22.9273 90.9269 23.52 90.9269 24.276V24.388C90.9269 25.144 91.1042 25.7413 91.4589 26.18C91.8135 26.6093 92.3129 26.824 92.9569 26.824ZM95.6449 27.104C94.9355 27.7947 94.0349 28.14 92.9429 28.14C91.8509 28.14 90.9502 27.7993 90.2409 27.118C89.5409 26.4273 89.1909 25.5267 89.1909 24.416V24.304C89.1909 23.184 89.5455 22.274 90.2549 21.574C90.9642 20.874 91.8649 20.524 92.9569 20.524C94.0395 20.524 94.9355 20.8693 95.6449 21.56C96.3542 22.2507 96.7089 23.1513 96.7089 24.262V24.374C96.7089 25.5033 96.3542 26.4133 95.6449 27.104ZM100.159 25.06C100.066 26.1053 99.8604 26.8753 99.5431 27.37C99.2351 27.8647 98.7498 28.112 98.0871 28.112C97.8631 28.112 97.7044 28.098 97.6111 28.07C97.5924 28.0607 97.5644 28.0467 97.5271 28.028C97.4991 28.0187 97.4804 28.014 97.4711 28.014V26.6L97.5551 26.628C97.6484 26.6467 97.7324 26.656 97.8071 26.656C98.0684 26.656 98.2598 26.502 98.3811 26.194C98.5118 25.8767 98.6098 25.4053 98.6751 24.78C98.6938 24.6027 98.7078 24.374 98.7171 24.094C98.7264 23.814 98.7358 23.4967 98.7451 23.142C98.7638 22.778 98.7778 22.4887 98.7871 22.274L98.8291 20.678H104.163V28H102.483V21.938H100.313C100.238 23.6273 100.187 24.668 100.159 25.06ZM109.459 26.824C110.093 26.824 110.588 26.6093 110.943 26.18C111.297 25.7413 111.475 25.144 111.475 24.388V24.29C111.475 23.534 111.297 22.9413 110.943 22.512C110.588 22.0733 110.093 21.854 109.459 21.854C108.824 21.854 108.325 22.0687 107.961 22.498C107.606 22.9273 107.429 23.52 107.429 24.276V24.388C107.429 25.144 107.606 25.7413 107.961 26.18C108.315 26.6093 108.815 26.824 109.459 26.824ZM112.147 27.104C111.437 27.7947 110.537 28.14 109.445 28.14C108.353 28.14 107.452 27.7993 106.743 27.118C106.043 26.4273 105.693 25.5267 105.693 24.416V24.304C105.693 23.184 106.047 22.274 106.757 21.574C107.466 20.874 108.367 20.524 109.459 20.524C110.541 20.524 111.437 20.8693 112.147 21.56C112.856 22.2507 113.211 23.1513 113.211 24.262V24.374C113.211 25.5033 112.856 26.4133 112.147 27.104ZM117.774 24.374L115.394 28H113.56L116.234 24.08L113.77 20.678H115.534L117.774 23.996V20.678H119.426V23.996L121.666 20.678H123.43L120.966 24.052L123.654 28H121.792L119.426 24.374V28H117.774V24.374ZM124.845 28V20.678H126.539V25.858L129.703 20.678H131.383V28H129.703V22.82L126.539 28H124.845ZM138.809 21.938H136.569V28H134.875V21.938H132.635V20.678H138.809V21.938ZM140.13 20.678H141.824V23.086H143.14C143.989 23.086 144.671 23.3007 145.184 23.73C145.697 24.1593 145.954 24.7707 145.954 25.564V25.606C145.954 26.4087 145.702 27.0107 145.198 27.412C144.694 27.804 143.994 28 143.098 28H140.13V20.678ZM142.888 26.782C143.793 26.782 144.246 26.3853 144.246 25.592V25.55C144.246 24.7287 143.793 24.318 142.888 24.318H141.824V26.782H142.888ZM71.9005 36.47V42H70.4445V34.678H72.7825L74.6165 39.242L76.4645 34.678H78.6625V42H76.9965V36.47L74.6865 42H74.1265L71.9005 36.47ZM82.6028 42.14C81.8841 42.14 81.2961 41.9627 80.8388 41.608C80.3814 41.244 80.1528 40.698 80.1528 39.97C80.1528 39.1673 80.4934 38.5793 81.1748 38.206C81.8654 37.8327 82.7754 37.646 83.9048 37.646H84.8148V37.268C84.8148 36.7547 84.7168 36.3813 84.5208 36.148C84.3248 35.9147 83.9794 35.798 83.4848 35.798C82.6541 35.798 82.1874 36.1807 82.0848 36.946H80.4468C80.5214 36.134 80.8434 35.5273 81.4128 35.126C81.9821 34.7247 82.7054 34.524 83.5828 34.524C85.5334 34.524 86.5088 35.4153 86.5088 37.198V42H84.8428V41.104C84.3014 41.7947 83.5548 42.14 82.6028 42.14ZM83.0088 40.922C83.5501 40.922 83.9841 40.7913 84.3108 40.53C84.6468 40.2687 84.8148 39.9047 84.8148 39.438V38.71H83.9468C82.5374 38.71 81.8328 39.1067 81.8328 39.9C81.8328 40.5813 82.2248 40.922 83.0088 40.922ZM88.4504 34.678H90.1444V35.854C90.359 35.4807 90.681 35.168 91.1104 34.916C91.549 34.6547 92.025 34.524 92.5384 34.524C93.481 34.524 94.2557 34.86 94.8624 35.532C95.4784 36.1947 95.7864 37.1 95.7864 38.248V38.36C95.7864 39.5173 95.483 40.4367 94.8764 41.118C94.279 41.7993 93.4997 42.14 92.5384 42.14C91.9784 42.14 91.4884 42.0233 91.0684 41.79C90.6577 41.5473 90.3497 41.2347 90.1444 40.852V44.506H88.4504V34.678ZM92.1184 40.796C92.7437 40.796 93.2197 40.5907 93.5464 40.18C93.8824 39.7693 94.0504 39.172 94.0504 38.388V38.276C94.0504 37.492 93.8684 36.8947 93.5044 36.484C93.1497 36.064 92.683 35.854 92.1044 35.854C91.4884 35.854 90.9984 36.0593 90.6344 36.47C90.2704 36.8807 90.0884 37.4827 90.0884 38.276V38.388C90.0884 39.1813 90.2657 39.7833 90.6204 40.194C90.9844 40.5953 91.4837 40.796 92.1184 40.796ZM97.3098 34.678H99.0038V40.74H101.23V34.678H102.924V40.74H105.15V34.678H106.844V42H97.3098V34.678ZM108.862 34.678H110.556V35.854C110.771 35.4807 111.093 35.168 111.522 34.916C111.961 34.6547 112.437 34.524 112.95 34.524C113.893 34.524 114.668 34.86 115.274 35.532C115.89 36.1947 116.198 37.1 116.198 38.248V38.36C116.198 39.5173 115.895 40.4367 115.288 41.118C114.691 41.7993 113.912 42.14 112.95 42.14C112.39 42.14 111.9 42.0233 111.48 41.79C111.07 41.5473 110.762 41.2347 110.556 40.852V44.506H108.862V34.678ZM112.53 40.796C113.156 40.796 113.632 40.5907 113.958 40.18C114.294 39.7693 114.462 39.172 114.462 38.388V38.276C114.462 37.492 114.28 36.8947 113.916 36.484C113.562 36.064 113.095 35.854 112.516 35.854C111.9 35.854 111.41 36.0593 111.046 36.47C110.682 36.8807 110.5 37.4827 110.5 38.276V38.388C110.5 39.1813 110.678 39.7833 111.032 40.194C111.396 40.5953 111.896 40.796 112.53 40.796ZM119.659 41.258L116.761 34.678H118.595L120.541 39.396L122.333 34.678H123.985L119.995 44.506H118.329L119.659 41.258ZM130.729 35.938H128.489V42H126.795V35.938H124.555V34.678H130.729V35.938Z" fill="#1E1E1E"/>
<g clip-path="url(#clip0_88_87)">
<path d="M57.9637 30.9985C57.9637 28.1558 57.4274 25.4444 56.4925 22.9295C56.2451 31.2074 47.8675 37.6164 42.949 41.8576H55.2603C56.9813 38.6192 57.9637 34.9248 57.9637 30.9985ZM49.0636 12.7714C45.1655 9.72348 40.2781 7.89062 34.955 7.89062C22.2472 7.89062 11.9453 18.2369 11.9453 30.9985C11.9453 43.7599 22.2472 54.1059 34.955 54.1059C40.7741 54.1059 46.0726 51.9194 50.1246 48.341H33.4664L33.4156 43.428C43.4528 34.6649 49.6058 28.7385 49.6058 23.0141C49.6058 20.8867 48.7989 18.202 45.1678 18.202C42.2925 18.202 39.5187 19.8747 40.0229 26.8642H34.1727C32.7097 18.7603 37.0978 12.3266 45.4695 12.3266C46.7675 12.3266 47.9681 12.4822 49.0636 12.7714Z" fill="#99CA3B"/>
</g>
<defs>
<clipPath id="clip0_88_87">
<rect width="46.2182" height="46.2182" fill="white" transform="translate(11.9453 7.89062)"/>
</clipPath>
</defs>
</svg>
