<svg width="167" height="62" viewBox="0 0 167 62" fill="none" xmlns="http://www.w3.org/2000/svg">
<rect x="0.5" y="0.5" width="165.836" height="61" rx="13.5" fill="white" stroke="#4285F5"/>
<path d="M76.1277 19.488H71.7877V28H69.9117V17.99H78.0037V28H76.1277V19.488ZM80.1486 20.678H81.8426V21.854C82.0573 21.4807 82.3793 21.168 82.8086 20.916C83.2473 20.6547 83.7233 20.524 84.2366 20.524C85.1793 20.524 85.954 20.86 86.5606 21.532C87.1766 22.1947 87.4846 23.1 87.4846 24.248V24.36C87.4846 25.5173 87.1813 26.4367 86.5746 27.118C85.9773 27.7993 85.198 28.14 84.2366 28.14C83.6766 28.14 83.1866 28.0233 82.7666 27.79C82.356 27.5473 82.048 27.2347 81.8426 26.852V30.506H80.1486V20.678ZM83.8166 26.796C84.442 26.796 84.918 26.5907 85.2446 26.18C85.5806 25.7693 85.7486 25.172 85.7486 24.388V24.276C85.7486 23.492 85.5666 22.8947 85.2026 22.484C84.848 22.064 84.3813 21.854 83.8026 21.854C83.1866 21.854 82.6966 22.0593 82.3326 22.47C81.9686 22.8807 81.7866 23.4827 81.7866 24.276V24.388C81.7866 25.1813 81.964 25.7833 82.3186 26.194C82.6826 26.5953 83.182 26.796 83.8166 26.796ZM92.284 26.824C92.9187 26.824 93.4133 26.6093 93.768 26.18C94.1227 25.7413 94.3 25.144 94.3 24.388V24.29C94.3 23.534 94.1227 22.9413 93.768 22.512C93.4133 22.0733 92.9187 21.854 92.284 21.854C91.6493 21.854 91.15 22.0687 90.786 22.498C90.4313 22.9273 90.254 23.52 90.254 24.276V24.388C90.254 25.144 90.4313 25.7413 90.786 26.18C91.1407 26.6093 91.64 26.824 92.284 26.824ZM94.972 27.104C94.2627 27.7947 93.362 28.14 92.27 28.14C91.178 28.14 90.2773 27.7993 89.568 27.118C88.868 26.4273 88.518 25.5267 88.518 24.416V24.304C88.518 23.184 88.8727 22.274 89.582 21.574C90.2913 20.874 91.192 20.524 92.284 20.524C93.3667 20.524 94.2627 20.8693 94.972 21.56C95.6813 22.2507 96.036 23.1513 96.036 24.262V24.374C96.036 25.5033 95.6813 26.4133 94.972 27.104ZM99.4862 25.06C99.3929 26.1053 99.1876 26.8753 98.8702 27.37C98.5622 27.8647 98.0769 28.112 97.4142 28.112C97.1902 28.112 97.0316 28.098 96.9382 28.07C96.9196 28.0607 96.8916 28.0467 96.8542 28.028C96.8262 28.0187 96.8076 28.014 96.7982 28.014V26.6L96.8822 26.628C96.9756 26.6467 97.0596 26.656 97.1342 26.656C97.3956 26.656 97.5869 26.502 97.7082 26.194C97.8389 25.8767 97.9369 25.4053 98.0022 24.78C98.0209 24.6027 98.0349 24.374 98.0442 24.094C98.0536 23.814 98.0629 23.4967 98.0722 23.142C98.0909 22.778 98.1049 22.4887 98.1142 22.274L98.1562 20.678H103.49V28H101.81V21.938H99.6402C99.5656 23.6273 99.5142 24.668 99.4862 25.06ZM108.786 26.824C109.421 26.824 109.915 26.6093 110.27 26.18C110.625 25.7413 110.802 25.144 110.802 24.388V24.29C110.802 23.534 110.625 22.9413 110.27 22.512C109.915 22.0733 109.421 21.854 108.786 21.854C108.151 21.854 107.652 22.0687 107.288 22.498C106.933 22.9273 106.756 23.52 106.756 24.276V24.388C106.756 25.144 106.933 25.7413 107.288 26.18C107.643 26.6093 108.142 26.824 108.786 26.824ZM111.474 27.104C110.765 27.7947 109.864 28.14 108.772 28.14C107.68 28.14 106.779 27.7993 106.07 27.118C105.37 26.4273 105.02 25.5267 105.02 24.416V24.304C105.02 23.184 105.375 22.274 106.084 21.574C106.793 20.874 107.694 20.524 108.786 20.524C109.869 20.524 110.765 20.8693 111.474 21.56C112.183 22.2507 112.538 23.1513 112.538 24.262V24.374C112.538 25.5033 112.183 26.4133 111.474 27.104ZM117.101 24.374L114.721 28H112.887L115.561 24.08L113.097 20.678H114.861L117.101 23.996V20.678H118.753V23.996L120.993 20.678H122.757L120.293 24.052L122.981 28H121.119L118.753 24.374V28H117.101V24.374ZM124.172 28V20.678H125.866V25.858L129.03 20.678H130.71V28H129.03V22.82L125.866 28H124.172ZM138.136 21.938H135.896V28H134.202V21.938H131.962V20.678H138.136V21.938ZM139.457 20.678H141.151V23.086H142.467C143.317 23.086 143.998 23.3007 144.511 23.73C145.025 24.1593 145.281 24.7707 145.281 25.564V25.606C145.281 26.4087 145.029 27.0107 144.525 27.412C144.021 27.804 143.321 28 142.425 28H139.457V20.678ZM142.215 26.782C143.121 26.782 143.573 26.3853 143.573 25.592V25.55C143.573 24.7287 143.121 24.318 142.215 24.318H141.151V26.782H142.215ZM71.2277 36.47V42H69.7717V34.678H72.1097L73.9437 39.242L75.7917 34.678H77.9897V42H76.3237V36.47L74.0137 42H73.4537L71.2277 36.47ZM81.9299 42.14C81.2112 42.14 80.6232 41.9627 80.1659 41.608C79.7086 41.244 79.4799 40.698 79.4799 39.97C79.4799 39.1673 79.8206 38.5793 80.5019 38.206C81.1926 37.8327 82.1026 37.646 83.2319 37.646H84.1419V37.268C84.1419 36.7547 84.0439 36.3813 83.8479 36.148C83.6519 35.9147 83.3066 35.798 82.8119 35.798C81.9812 35.798 81.5146 36.1807 81.4119 36.946H79.7739C79.8486 36.134 80.1706 35.5273 80.7399 35.126C81.3092 34.7247 82.0326 34.524 82.9099 34.524C84.8606 34.524 85.8359 35.4153 85.8359 37.198V42H84.1699V41.104C83.6286 41.7947 82.8819 42.14 81.9299 42.14ZM82.3359 40.922C82.8772 40.922 83.3112 40.7913 83.6379 40.53C83.9739 40.2687 84.1419 39.9047 84.1419 39.438V38.71H83.2739C81.8646 38.71 81.1599 39.1067 81.1599 39.9C81.1599 40.5813 81.5519 40.922 82.3359 40.922ZM87.7775 34.678H89.4715V35.854C89.6862 35.4807 90.0082 35.168 90.4375 34.916C90.8762 34.6547 91.3522 34.524 91.8655 34.524C92.8082 34.524 93.5829 34.86 94.1895 35.532C94.8055 36.1947 95.1135 37.1 95.1135 38.248V38.36C95.1135 39.5173 94.8102 40.4367 94.2035 41.118C93.6062 41.7993 92.8269 42.14 91.8655 42.14C91.3055 42.14 90.8155 42.0233 90.3955 41.79C89.9849 41.5473 89.6769 41.2347 89.4715 40.852V44.506H87.7775V34.678ZM91.4455 40.796C92.0709 40.796 92.5469 40.5907 92.8735 40.18C93.2095 39.7693 93.3775 39.172 93.3775 38.388V38.276C93.3775 37.492 93.1955 36.8947 92.8315 36.484C92.4769 36.064 92.0102 35.854 91.4315 35.854C90.8155 35.854 90.3255 36.0593 89.9615 36.47C89.5975 36.8807 89.4155 37.4827 89.4155 38.276V38.388C89.4155 39.1813 89.5929 39.7833 89.9475 40.194C90.3115 40.5953 90.8109 40.796 91.4455 40.796ZM96.6369 34.678H98.3309V40.74H100.557V34.678H102.251V40.74H104.477V34.678H106.171V42H96.6369V34.678ZM108.19 34.678H109.884V35.854C110.098 35.4807 110.42 35.168 110.85 34.916C111.288 34.6547 111.764 34.524 112.278 34.524C113.22 34.524 113.995 34.86 114.602 35.532C115.218 36.1947 115.526 37.1 115.526 38.248V38.36C115.526 39.5173 115.222 40.4367 114.616 41.118C114.018 41.7993 113.239 42.14 112.278 42.14C111.718 42.14 111.228 42.0233 110.808 41.79C110.397 41.5473 110.089 41.2347 109.884 40.852V44.506H108.19V34.678ZM111.858 40.796C112.483 40.796 112.959 40.5907 113.286 40.18C113.622 39.7693 113.79 39.172 113.79 38.388V38.276C113.79 37.492 113.608 36.8947 113.244 36.484C112.889 36.064 112.422 35.854 111.844 35.854C111.228 35.854 110.738 36.0593 110.374 36.47C110.01 36.8807 109.828 37.4827 109.828 38.276V38.388C109.828 39.1813 110.005 39.7833 110.36 40.194C110.724 40.5953 111.223 40.796 111.858 40.796ZM118.986 41.258L116.088 34.678H117.922L119.868 39.396L121.66 34.678H123.312L119.322 44.506H117.656L118.986 41.258ZM130.056 35.938H127.816V42H126.122V35.938H123.882V34.678H130.056V35.938Z" fill="#1E1E1E"/>
<path d="M4 23.9112C4 16.9416 4 13.4568 5.35636 10.7948C6.54946 8.45322 8.45322 6.54946 10.7948 5.35636C13.4568 4 16.9416 4 23.9112 4H40.0888C47.0584 4 50.5432 4 53.2052 5.35636C55.5468 6.54946 57.4506 8.45322 58.6436 10.7948C60 13.4568 60 16.9416 60 23.9112V40.0888C60 47.0584 60 50.5432 58.6436 53.2052C57.4506 55.5468 55.5468 57.4506 53.2052 58.6436C50.5432 60 47.0584 60 40.0888 60H23.9112C16.9416 60 13.4568 60 10.7948 58.6436C8.45322 57.4506 6.54946 55.5468 5.35636 53.2052C4 50.5432 4 47.0584 4 40.0888V23.9112Z" fill="white"/>
<path fill-rule="evenodd" clip-rule="evenodd" d="M48 25.6232L47.9998 25.7082C47.9996 25.744 47.9992 25.7798 47.9988 25.8156C47.9996 25.8574 48 25.8996 48 25.942C48 32.6146 42.8014 38.5208 39.3228 42.4734C38.3134 43.6202 37.4488 44.6026 36.898 45.3914C34.9388 48.1972 33.9048 51.2368 33.6326 52.4058C33.6326 53.2862 32.9018 54 32 54C31.0982 54 30.3674 53.2862 30.3674 52.4058C30.0952 51.2368 29.0612 48.1972 27.102 45.3914C26.5512 44.6026 25.6866 43.6202 24.6772 42.4734C21.1986 38.5208 16 32.6146 16 25.942C16 25.8996 16.0004 25.8574 16.0012 25.8156C16.0004 25.7516 16 25.6874 16 25.6232C16 16.9947 23.1634 10 32 10C40.8366 10 48 16.9947 48 25.6232ZM32 31.3624C35.4264 31.3624 38.204 28.65 38.204 25.3044C38.204 21.9586 35.4264 19.2464 32 19.2464C28.5736 19.2464 25.796 21.9586 25.796 25.3044C25.796 28.65 28.5736 31.3624 32 31.3624Z" fill="#34A851"/>
<path d="M46.2099 18.4371C44.2507 14.7509 40.8313 11.9235 36.6999 10.6855L27.5107 21.123C28.6405 19.967 30.2339 19.2469 31.9993 19.2469C35.4257 19.2469 38.2035 21.9592 38.2035 25.3048C38.2035 26.6698 37.7411 27.9292 36.9613 28.9422L46.2099 18.4371Z" fill="#4285F5"/>
<path d="M24.8631 42.6849C24.8019 42.6151 24.7399 42.5449 24.6775 42.4741C22.3845 39.8687 19.3442 36.4145 17.5381 32.4513L27.0887 21.6035C26.2785 22.6271 25.7963 23.9111 25.7963 25.3051C25.7963 28.6507 28.5739 31.3631 32.0003 31.3631C33.7361 31.3631 35.3051 30.6671 36.4313 29.5453L24.8631 42.6849Z" fill="#F9BB0E"/>
<path d="M19.7858 15.5312C17.4241 18.2537 16 21.7762 16 25.6234C16 25.6876 16.0004 25.7518 16.0012 25.8158C16.0004 25.8576 16 25.8998 16 25.9422C16 28.2164 16.6039 30.4018 17.5378 32.4508L27.0724 21.6212L19.7858 15.5312Z" fill="#E74335"/>
<path d="M36.6997 10.6851C35.2135 10.2398 33.6351 10 31.9993 10C27.1029 10 22.7201 12.1477 19.7852 15.5311L27.0717 21.621L27.0875 21.603C27.2201 21.4356 27.3615 21.275 27.5109 21.1222L36.6997 10.6851Z" fill="#1A73E6"/>
</svg>
