<svg width="18" height="18" viewBox="0 0 18 18" fill="none" xmlns="http://www.w3.org/2000/svg">
<g clip-path="url(#clip0_88_147)">
<path fill-rule="evenodd" clip-rule="evenodd" d="M4.875 0.75C3.78098 0.75 2.73177 1.1846 1.95818 1.95818C1.1846 2.73177 0.75 3.78098 0.75 4.875V13.125C0.75 14.219 1.1846 15.2682 1.95818 16.0418C2.73177 16.8154 3.78098 17.25 4.875 17.25H13.125C14.219 17.25 15.2682 16.8154 16.0418 16.0418C16.8154 15.2682 17.25 14.219 17.25 13.125V4.875C17.25 3.78098 16.8154 2.73177 16.0418 1.95818C15.2682 1.1846 14.219 0.75 13.125 0.75H4.875ZM9 6C8.20435 6 7.44129 6.31607 6.87868 6.87868C6.31607 7.44129 6 8.20435 6 9C6 9.79565 6.31607 10.5587 6.87868 11.1213C7.44129 11.6839 8.20435 12 9 12C9.79565 12 10.5587 11.6839 11.1213 11.1213C11.6839 10.5587 12 9.79565 12 9C12 8.20435 11.6839 7.44129 11.1213 6.87868C10.5587 6.31607 9.79565 6 9 6ZM4.5 9C4.5 7.80653 4.97411 6.66193 5.81802 5.81802C6.66193 4.97411 7.80653 4.5 9 4.5C10.1935 4.5 11.3381 4.97411 12.182 5.81802C13.0259 6.66193 13.5 7.80653 13.5 9C13.5 10.1935 13.0259 11.3381 12.182 12.182C11.3381 13.0259 10.1935 13.5 9 13.5C7.80653 13.5 6.66193 13.0259 5.81802 12.182C4.97411 11.3381 4.5 10.1935 4.5 9ZM13.5 3C13.1022 3 12.7206 3.15804 12.4393 3.43934C12.158 3.72064 12 4.10218 12 4.5C12 4.89782 12.158 5.27936 12.4393 5.56066C12.7206 5.84196 13.1022 6 13.5 6C13.8978 6 14.2794 5.84196 14.5607 5.56066C14.842 5.27936 15 4.89782 15 4.5C15 4.10218 14.842 3.72064 14.5607 3.43934C14.2794 3.15804 13.8978 3 13.5 3Z" fill="#1E1E1E"/>
</g>
<defs>
<clipPath id="clip0_88_147">
<rect width="18" height="18" fill="white"/>
</clipPath>
</defs>
</svg>
