<svg width="17" height="18" viewBox="0 0 17 18" fill="none" xmlns="http://www.w3.org/2000/svg">
<path d="M15.8652 5.88006C14.9768 1.81667 11.5256 0 8.50147 0C8.50147 0 8.50147 0 8.49292 0C5.47736 0 2.03467 1.81667 1.13769 5.87128C0.129654 10.3998 2.82914 14.235 5.27234 16.6572C6.17786 17.5524 7.33966 18 8.50147 18C9.66327 18 10.8251 17.5524 11.7221 16.6572C14.1653 14.235 16.8647 10.4086 15.8652 5.88006ZM10.8507 8.5568H9.14217V10.312C9.14217 10.6719 8.85172 10.9703 8.50147 10.9703C8.15122 10.9703 7.86077 10.6719 7.86077 10.312V8.5568H6.15223C5.80198 8.5568 5.51153 8.25841 5.51153 7.89859C5.51153 7.53876 5.80198 7.24037 6.15223 7.24037H7.86077V5.48513C7.86077 5.1253 8.15122 4.82691 8.50147 4.82691C8.85172 4.82691 9.14217 5.1253 9.14217 5.48513V7.24037H10.8507C11.2009 7.24037 11.4914 7.53876 11.4914 7.89859C11.4914 8.25841 11.2009 8.5568 10.8507 8.5568Z" fill="#1E1E1E"/>
</svg>
