<svg width="18" height="18" viewBox="0 0 18 18" fill="none" xmlns="http://www.w3.org/2000/svg">
<g clip-path="url(#clip0_88_152)">
<path fill-rule="evenodd" clip-rule="evenodd" d="M9 0C4.02961 0 0 4.02961 0 9C0 13.9704 4.02961 18 9 18C13.9704 18 18 13.9704 18 9C18 4.02961 13.9704 0 9 0ZM13.1716 6.1207C13.0363 7.54383 12.4502 10.9972 12.1521 12.5912C12.0259 13.2659 11.7773 13.4919 11.5369 13.5141C11.0145 13.5622 10.6175 13.1685 10.1113 12.8366C9.31922 12.3173 8.87168 11.9943 8.10281 11.4877C7.21406 10.902 7.79027 10.5803 8.29652 10.0543C8.42906 9.91652 10.7318 7.82191 10.7764 7.63207C10.7821 7.60816 10.7873 7.51957 10.7346 7.47281C10.6819 7.42605 10.6042 7.44223 10.5483 7.45488C10.4688 7.47281 9.2032 8.30918 6.75211 9.96398C6.39281 10.2108 6.06762 10.3307 5.77582 10.3247C5.45449 10.3177 4.83645 10.1429 4.37695 9.99352C3.8134 9.81035 3.36551 9.71332 3.40453 9.40219C3.42457 9.24012 3.64781 9.07453 4.07391 8.90508C6.69762 7.7618 8.44699 7.0084 9.32238 6.64418C11.822 5.60464 12.3413 5.42391 12.6798 5.41793C13.1038 5.41044 13.2062 5.76046 13.1716 6.1207Z" fill="#1E1E1E"/>
</g>
<defs>
<clipPath id="clip0_88_152">
<rect width="18" height="18" fill="white"/>
</clipPath>
</defs>
</svg>
