<svg width="18" height="18" viewBox="0 0 18 18" fill="none" xmlns="http://www.w3.org/2000/svg">
<path d="M9 0.308594C11.3278 0.308614 13.5073 1.21379 15.1484 2.85352C16.7892 4.49308 17.6913 6.67534 17.6914 8.99707C17.6914 13.7853 13.7882 17.6816 9 17.6816H8.99512C7.54026 17.6816 6.11115 17.3153 4.8418 16.625C4.79009 16.5969 4.73177 16.584 4.67383 16.5879L4.61621 16.5977L0.452148 17.6895C0.414901 17.6992 0.376131 17.6647 0.387695 17.6221L1.5 13.5693C1.52181 13.4899 1.5109 13.4044 1.46973 13.333C0.708361 12.0132 0.308054 10.5165 0.308594 8.99316C0.308594 4.20489 4.21185 0.308594 9 0.308594ZM5.7002 4.37793C5.47275 4.37798 5.13488 4.46194 4.85254 4.76758C4.841 4.78007 4.82808 4.79401 4.8125 4.81055C4.55431 5.08449 3.95712 5.72031 3.95703 6.91992C3.95703 7.55305 4.18388 8.15954 4.41406 8.61621C4.64629 9.07682 4.89501 9.41205 4.96484 9.50586L4.96973 9.51172C4.96973 9.51172 4.97077 9.51293 4.97266 9.51562C4.97477 9.51864 4.97785 9.52304 4.98145 9.52832C4.9887 9.53895 4.99819 9.55216 5.00977 9.56934C5.30004 10.0001 6.79256 12.2265 9.08301 13.1309C9.98208 13.4861 10.5746 13.6548 11.001 13.7266C11.4386 13.8003 11.6949 13.7707 11.9053 13.7451C11.9476 13.74 11.9846 13.7348 12.0205 13.7314L12.0195 13.7305C12.3055 13.7037 12.6991 13.5347 13.0322 13.3193C13.3614 13.1065 13.7204 12.7928 13.8545 12.4219L13.8555 12.4189C13.9603 12.1216 14.0142 11.8433 14.0332 11.6211C14.0426 11.5104 14.0439 11.4085 14.0371 11.3223C14.0316 11.2523 14.0173 11.1421 13.9639 11.0518H13.9648C13.9036 10.9482 13.8136 10.8834 13.7441 10.8408C13.6745 10.7981 13.5906 10.7582 13.5146 10.7217C13.4746 10.7024 13.4333 10.682 13.3896 10.6602C13.272 10.6014 12.926 10.4314 12.583 10.2656C12.2489 10.1042 11.8927 9.93422 11.7686 9.8877C11.668 9.85004 11.5081 9.7915 11.3389 9.81152C11.1376 9.83535 10.9896 9.95621 10.8809 10.1211C10.7367 10.3349 10.3055 10.8402 10.165 11.0039C10.1539 11.0169 10.1447 11.0231 10.1396 11.0273C10.1368 11.0268 10.1332 11.0265 10.1289 11.0254C10.1087 11.0202 10.0775 11.009 10.0322 10.9863C9.98524 10.9629 9.92441 10.9372 9.86426 10.9111C9.54753 10.7739 8.93495 10.5081 8.22656 9.875H8.22559C7.56961 9.29137 7.11979 8.56137 6.99121 8.33887C6.98391 8.32622 6.98015 8.31611 6.97754 8.30957C6.97901 8.3076 6.98137 8.30525 6.9834 8.30273L7.04492 8.2373C7.12326 8.15897 7.2106 8.05313 7.28418 7.96387C7.32848 7.91013 7.37006 7.85953 7.40918 7.81445C7.54057 7.66289 7.59891 7.53979 7.66113 7.41016C7.66926 7.39321 7.67701 7.37596 7.68555 7.3584C7.82019 7.08124 7.74608 6.83976 7.66602 6.67969C7.66602 6.67969 7.66414 6.6752 7.65918 6.66406C7.65457 6.65372 7.64879 6.63987 7.6416 6.62305C7.62727 6.58952 7.60869 6.54571 7.58691 6.49316C7.54326 6.38785 7.48757 6.25068 7.42578 6.09961C7.26806 5.71401 7.07036 5.23125 6.95215 4.9668L6.87109 4.80859C6.78518 4.66235 6.68381 4.55317 6.56055 4.48145C6.39823 4.38702 6.23896 4.38498 6.15723 4.38281H6.1582C6.01794 4.37816 5.8553 4.37793 5.7002 4.37793Z" fill="#1E1E1E" stroke="#1E1E1E" stroke-width="0.616814" stroke-linejoin="round"/>
</svg>
