<svg width="168" height="62" viewBox="0 0 168 62" fill="none" xmlns="http://www.w3.org/2000/svg">
<rect x="1.33643" y="0.5" width="165.836" height="61" rx="13.5" fill="white" stroke="#FF4433"/>
<path d="M76.9641 19.488H72.6241V28H70.7481V17.99H78.8401V28H76.9641V19.488ZM80.9851 20.678H82.6791V21.854C82.8937 21.4807 83.2157 21.168 83.6451 20.916C84.0837 20.6547 84.5597 20.524 85.0731 20.524C86.0157 20.524 86.7904 20.86 87.3971 21.532C88.0131 22.1947 88.3211 23.1 88.3211 24.248V24.36C88.3211 25.5173 88.0177 26.4367 87.4111 27.118C86.8137 27.7993 86.0344 28.14 85.0731 28.14C84.5131 28.14 84.0231 28.0233 83.6031 27.79C83.1924 27.5473 82.8844 27.2347 82.6791 26.852V30.506H80.9851V20.678ZM84.6531 26.796C85.2784 26.796 85.7544 26.5907 86.0811 26.18C86.4171 25.7693 86.5851 25.172 86.5851 24.388V24.276C86.5851 23.492 86.4031 22.8947 86.0391 22.484C85.6844 22.064 85.2177 21.854 84.6391 21.854C84.0231 21.854 83.5331 22.0593 83.1691 22.47C82.8051 22.8807 82.6231 23.4827 82.6231 24.276V24.388C82.6231 25.1813 82.8004 25.7833 83.1551 26.194C83.5191 26.5953 84.0184 26.796 84.6531 26.796ZM93.1204 26.824C93.7551 26.824 94.2498 26.6093 94.6044 26.18C94.9591 25.7413 95.1364 25.144 95.1364 24.388V24.29C95.1364 23.534 94.9591 22.9413 94.6044 22.512C94.2498 22.0733 93.7551 21.854 93.1204 21.854C92.4858 21.854 91.9864 22.0687 91.6224 22.498C91.2678 22.9273 91.0904 23.52 91.0904 24.276V24.388C91.0904 25.144 91.2678 25.7413 91.6224 26.18C91.9771 26.6093 92.4764 26.824 93.1204 26.824ZM95.8084 27.104C95.0991 27.7947 94.1984 28.14 93.1064 28.14C92.0144 28.14 91.1138 27.7993 90.4044 27.118C89.7044 26.4273 89.3544 25.5267 89.3544 24.416V24.304C89.3544 23.184 89.7091 22.274 90.4184 21.574C91.1278 20.874 92.0284 20.524 93.1204 20.524C94.2031 20.524 95.0991 20.8693 95.8084 21.56C96.5178 22.2507 96.8724 23.1513 96.8724 24.262V24.374C96.8724 25.5033 96.5178 26.4133 95.8084 27.104ZM100.323 25.06C100.229 26.1053 100.024 26.8753 99.7067 27.37C99.3987 27.8647 98.9133 28.112 98.2507 28.112C98.0267 28.112 97.868 28.098 97.7747 28.07C97.756 28.0607 97.728 28.0467 97.6907 28.028C97.6627 28.0187 97.644 28.014 97.6347 28.014V26.6L97.7187 26.628C97.812 26.6467 97.896 26.656 97.9707 26.656C98.232 26.656 98.4233 26.502 98.5447 26.194C98.6753 25.8767 98.7733 25.4053 98.8387 24.78C98.8573 24.6027 98.8713 24.374 98.8807 24.094C98.89 23.814 98.8993 23.4967 98.9087 23.142C98.9273 22.778 98.9413 22.4887 98.9507 22.274L98.9927 20.678H104.327V28H102.647V21.938H100.477C100.402 23.6273 100.351 24.668 100.323 25.06ZM109.622 26.824C110.257 26.824 110.752 26.6093 111.106 26.18C111.461 25.7413 111.638 25.144 111.638 24.388V24.29C111.638 23.534 111.461 22.9413 111.106 22.512C110.752 22.0733 110.257 21.854 109.622 21.854C108.988 21.854 108.488 22.0687 108.124 22.498C107.77 22.9273 107.592 23.52 107.592 24.276V24.388C107.592 25.144 107.77 25.7413 108.124 26.18C108.479 26.6093 108.978 26.824 109.622 26.824ZM112.31 27.104C111.601 27.7947 110.7 28.14 109.608 28.14C108.516 28.14 107.616 27.7993 106.906 27.118C106.206 26.4273 105.856 25.5267 105.856 24.416V24.304C105.856 23.184 106.211 22.274 106.92 21.574C107.63 20.874 108.53 20.524 109.622 20.524C110.705 20.524 111.601 20.8693 112.31 21.56C113.02 22.2507 113.374 23.1513 113.374 24.262V24.374C113.374 25.5033 113.02 26.4133 112.31 27.104ZM117.938 24.374L115.558 28H113.724L116.398 24.08L113.934 20.678H115.698L117.938 23.996V20.678H119.59V23.996L121.83 20.678H123.594L121.13 24.052L123.818 28H121.956L119.59 24.374V28H117.938V24.374ZM125.008 28V20.678H126.702V25.858L129.866 20.678H131.546V28H129.866V22.82L126.702 28H125.008ZM138.973 21.938H136.733V28H135.039V21.938H132.799V20.678H138.973V21.938ZM140.294 20.678H141.988V23.086H143.304C144.153 23.086 144.834 23.3007 145.348 23.73C145.861 24.1593 146.118 24.7707 146.118 25.564V25.606C146.118 26.4087 145.866 27.0107 145.362 27.412C144.858 27.804 144.158 28 143.262 28H140.294V20.678ZM143.052 26.782C143.957 26.782 144.41 26.3853 144.41 25.592V25.55C144.41 24.7287 143.957 24.318 143.052 24.318H141.988V26.782H143.052ZM72.0641 36.47V42H70.6081V34.678H72.9461L74.7801 39.242L76.6281 34.678H78.8261V42H77.1601V36.47L74.8501 42H74.2901L72.0641 36.47ZM82.7663 42.14C82.0477 42.14 81.4597 41.9627 81.0023 41.608C80.545 41.244 80.3163 40.698 80.3163 39.97C80.3163 39.1673 80.657 38.5793 81.3383 38.206C82.029 37.8327 82.939 37.646 84.0683 37.646H84.9783V37.268C84.9783 36.7547 84.8803 36.3813 84.6843 36.148C84.4883 35.9147 84.143 35.798 83.6483 35.798C82.8177 35.798 82.351 36.1807 82.2483 36.946H80.6103C80.685 36.134 81.007 35.5273 81.5763 35.126C82.1457 34.7247 82.869 34.524 83.7463 34.524C85.697 34.524 86.6723 35.4153 86.6723 37.198V42H85.0063V41.104C84.465 41.7947 83.7183 42.14 82.7663 42.14ZM83.1723 40.922C83.7137 40.922 84.1477 40.7913 84.4743 40.53C84.8103 40.2687 84.9783 39.9047 84.9783 39.438V38.71H84.1103C82.701 38.71 81.9963 39.1067 81.9963 39.9C81.9963 40.5813 82.3883 40.922 83.1723 40.922ZM88.614 34.678H90.308V35.854C90.5226 35.4807 90.8446 35.168 91.274 34.916C91.7126 34.6547 92.1886 34.524 92.702 34.524C93.6446 34.524 94.4193 34.86 95.026 35.532C95.642 36.1947 95.95 37.1 95.95 38.248V38.36C95.95 39.5173 95.6466 40.4367 95.04 41.118C94.4426 41.7993 93.6633 42.14 92.702 42.14C92.142 42.14 91.652 42.0233 91.232 41.79C90.8213 41.5473 90.5133 41.2347 90.308 40.852V44.506H88.614V34.678ZM92.282 40.796C92.9073 40.796 93.3833 40.5907 93.71 40.18C94.046 39.7693 94.214 39.172 94.214 38.388V38.276C94.214 37.492 94.032 36.8947 93.668 36.484C93.3133 36.064 92.8466 35.854 92.268 35.854C91.652 35.854 91.162 36.0593 90.798 36.47C90.434 36.8807 90.252 37.4827 90.252 38.276V38.388C90.252 39.1813 90.4293 39.7833 90.784 40.194C91.148 40.5953 91.6473 40.796 92.282 40.796ZM97.4733 34.678H99.1673V40.74H101.393V34.678H103.087V40.74H105.313V34.678H107.007V42H97.4733V34.678ZM109.026 34.678H110.72V35.854C110.935 35.4807 111.257 35.168 111.686 34.916C112.125 34.6547 112.601 34.524 113.114 34.524C114.057 34.524 114.831 34.86 115.438 35.532C116.054 36.1947 116.362 37.1 116.362 38.248V38.36C116.362 39.5173 116.059 40.4367 115.452 41.118C114.855 41.7993 114.075 42.14 113.114 42.14C112.554 42.14 112.064 42.0233 111.644 41.79C111.233 41.5473 110.925 41.2347 110.72 40.852V44.506H109.026V34.678ZM112.694 40.796C113.319 40.796 113.795 40.5907 114.122 40.18C114.458 39.7693 114.626 39.172 114.626 38.388V38.276C114.626 37.492 114.444 36.8947 114.08 36.484C113.725 36.064 113.259 35.854 112.68 35.854C112.064 35.854 111.574 36.0593 111.21 36.47C110.846 36.8807 110.664 37.4827 110.664 38.276V38.388C110.664 39.1813 110.841 39.7833 111.196 40.194C111.56 40.5953 112.059 40.796 112.694 40.796ZM119.822 41.258L116.924 34.678H118.758L120.704 39.396L122.496 34.678H124.148L120.158 44.506H118.492L119.822 41.258ZM130.893 35.938H128.653V42H126.959V35.938H124.719V34.678H130.893V35.938Z" fill="#1E1E1E"/>
<path d="M32.4033 8.41797C22.5541 8.41797 14.5703 16.4018 14.5703 26.251C14.5703 31.1738 16.565 35.6312 19.7909 38.8581C23.0178 42.0868 30.62 46.759 31.0658 51.6631C31.1327 52.3984 31.665 53.0005 32.4032 53.0005C33.1416 53.0005 33.6739 52.3983 33.7407 51.6631C34.1865 46.759 41.7887 42.0868 45.0156 38.8581C48.2416 35.6312 50.2362 31.1739 50.2362 26.251C50.2364 16.4018 42.2526 8.41797 32.4033 8.41797Z" fill="#FF4433"/>
<path d="M32.4032 32.493C35.8503 32.493 38.6447 29.6985 38.6447 26.2514C38.6447 22.8042 35.8503 20.0098 32.4032 20.0098C28.9561 20.0098 26.1616 22.8042 26.1616 26.2514C26.1616 29.6985 28.9561 32.493 32.4032 32.493Z" fill="white"/>
</svg>
