<svg width="76" height="76" viewBox="0 0 76 76" fill="none" xmlns="http://www.w3.org/2000/svg">
<path d="M70.8796 13.7484C70.2754 11.9313 67.7989 11.6767 66.8388 13.3362C64.9073 16.6755 61.0213 18.5565 57.0739 17.8091L47.0386 23.8643L50.9277 29.6406C51.6813 30.7597 51.272 32.2875 50.0618 32.8813L41.8978 36.8879C40.7932 37.43 39.4595 36.9737 38.9174 35.8708C38.3759 34.7675 38.831 33.4332 39.9351 32.8917L45.8082 30.0093L42.0382 24.4098C41.3272 23.3544 41.6456 21.9183 42.7344 21.2607L52.4189 15.4178C49.2083 12.3678 48.6437 7.57328 50.8545 3.91163C51.8885 2.19925 50.3032 0.0923296 48.3705 0.611861C46.7521 1.04663 45.1628 1.72217 43.6489 2.61799C42.0797 3.5452 40.2905 4.03436 38.4678 4.03447C36.6452 4.03457 34.8559 3.54561 33.2866 2.61859C17.3569 -6.80319 -0.699202 10.9102 6.71629 28.5511C9.03978 34.0867 10.0742 40.0137 9.70775 45.692C8.89951 58.2466 14.7134 69.6746 24.0869 75.6411C24.7997 76.0938 24.9573 75.989 29.487 75.989C30.7163 75.989 31.7136 74.9923 31.7136 73.763V55.6559C31.7136 52.0499 34.6482 49.0568 38.2553 48.9838C41.9766 48.9044 45.073 51.9914 45.073 55.8033V73.763C45.073 74.9921 46.0697 75.989 47.2995 75.989C52.4288 75.989 52.536 76.1003 53.2642 75.6115C62.0587 69.7146 67.7804 58.4177 67.0974 45.9977C66.5547 36.3081 69.8505 29.6045 70.1352 28.7506C72.2534 23.8468 72.5112 18.6596 70.8796 13.7484Z" fill="#0079FF"/>
</svg>
