<svg width="76" height="76" viewBox="0 0 76 76" fill="none" xmlns="http://www.w3.org/2000/svg">
<g clip-path="url(#clip0_174_196)">
<path d="M55.1471 23.9229C52.7799 28.5205 50.9638 32.0595 51.4234 35.9785C48.0014 32.4531 43.2162 30.3613 38.041 30.5225C33.3235 30.6667 28.9504 32.7534 25.7591 36.0413C26.2457 32.0986 24.4229 28.5443 22.0421 23.9212C21.257 22.413 20.4939 20.8912 19.7529 19.3592C23.8311 22.5097 30.2069 25.9689 38.5971 25.9689H38.9719C47.1773 25.8672 53.4226 22.4605 57.4397 19.3541C56.6986 20.8895 55.9339 22.4113 55.1471 23.9229Z" fill="#0079FF"/>
<path d="M25.4916 1.65578C26.6786 2.22582 27.7384 2.88238 28.6405 3.53386C31.608 5.6732 35.0163 6.80649 38.4993 6.80649C41.9822 6.80649 45.3906 5.6732 48.358 3.53555C49.2669 2.87729 50.3386 2.21564 51.5357 1.64221C52.4752 1.71347 57.9115 2.26484 60.0956 5.6206C61.3029 7.47832 61.3165 9.99429 60.1482 13.0922C58.4711 15.0992 51.0219 23.1052 38.9368 23.2528L38.5976 23.2562C26.314 23.2562 18.7479 15.1331 17.042 13.0905C15.8754 9.99259 15.8889 7.47832 17.0963 5.6206C19.1718 2.4328 24.1842 1.77624 25.4916 1.65578Z" fill="#0079FF"/>
<path d="M66.2709 32.0138C63.8613 35.6919 62.5251 44.1882 61.1092 53.1815C59.6781 62.2784 57.5212 76 54.3604 76H54.3214C51.7287 75.9033 49.7057 65.0522 48.3661 57.8708C46.1956 46.2342 44.3202 36.1737 38.9296 36.1737H38.8075L38.2123 36.1771C38.1632 36.1737 38.1157 36.1737 38.0682 36.1737C32.6793 36.1737 30.8022 46.2342 28.6334 57.8708C27.2921 65.0505 25.2691 75.9033 22.6764 76H22.6357C19.4766 76 17.318 62.2767 15.8886 53.1815C14.4727 44.1882 13.1365 35.6936 10.7269 32.0138C7.29819 26.7732 5.56519 14.6497 8.4733 6.86933C9.75694 3.43893 11.7477 1.32164 14.3913 0.576859C16.2853 0.0339653 18.2676 -0.127206 20.2227 0.101827C18.2354 0.860181 16.1565 2.09696 14.8287 4.13111C13.0839 6.80486 13.0008 10.2132 14.5795 14.2696C16.3294 18.7621 18.1608 22.3113 19.6309 25.1648C22.361 30.4665 24.0092 33.6679 22.634 37.5428C22.0371 39.2173 21.6115 41.3821 21.3046 43.7047C21.1842 44.1288 21.0706 44.5546 20.979 44.9889C20.9332 45.2468 20.9638 45.5115 21.0689 45.7524C20.3889 52.5318 20.5805 59.8557 20.5924 60.3002C20.6026 60.6531 20.7501 60.9873 21.0028 61.2333C21.2554 61.4793 21.5946 61.6184 21.9473 61.6184H21.988C22.7341 61.5981 23.3242 60.9738 23.3038 60.2222C23.3021 60.1068 23.0715 51.2865 23.9702 44.2408C25.8592 37.9839 31.611 33.4372 38.1241 33.237C45.0833 32.9791 51.2183 37.5666 53.2175 44.217C54.1179 51.2661 53.889 60.1051 53.8856 60.2222C53.8652 60.9738 54.4554 61.5981 55.2015 61.6184H55.2421C55.5949 61.6184 55.934 61.4793 56.1883 61.2333C56.441 60.9873 56.5885 60.6531 56.5987 60.3002C56.6106 59.8557 56.8022 52.5352 56.1239 45.7558C56.229 45.5149 56.2596 45.2468 56.2121 44.9872C56.1171 44.5597 56.0086 44.1373 55.8865 43.7165C55.5813 41.3889 55.154 39.2207 54.5571 37.5428C53.1802 33.6679 54.8284 30.4682 57.5602 25.1648C59.0303 22.313 60.8583 18.7621 62.6082 14.2696C64.1886 10.2132 64.1072 6.80317 62.3624 4.13111C61.0245 2.08169 58.9235 0.841519 56.9226 0.083165C58.6861 -0.101758 60.5904 0.00512412 62.6065 0.576859C65.2501 1.32164 67.2409 3.44062 68.5245 6.86933C71.4326 14.6497 69.7013 26.7732 66.2709 32.0138Z" fill="#0079FF"/>
</g>
<defs>
<clipPath id="clip0_174_196">
<rect width="63" height="76" fill="white" transform="translate(7)"/>
</clipPath>
</defs>
</svg>
