<svg width="76" height="76" viewBox="0 0 76 76" fill="none" xmlns="http://www.w3.org/2000/svg">
<path d="M73.4467 23.3106C73.4336 23.1157 73.3711 22.9274 73.2652 22.7633C73.1592 22.5992 73.0133 22.4647 72.8411 22.3725C72.6697 22.2744 72.476 22.2218 72.2786 22.2197C72.0811 22.2176 71.8864 22.2661 71.7129 22.3606C71.0361 22.7169 70.2879 22.9069 69.5042 22.9069C66.8204 22.9069 64.6354 20.6981 64.6354 17.9906C64.6354 15.4375 66.6067 13.2762 69.1361 13.0862C69.5398 13.0506 69.8961 12.825 70.0861 12.4687C70.2761 12.1125 70.2761 11.685 70.0861 11.3287C69.2904 9.88 68.3286 8.56187 67.2004 7.38625C61.9279 1.92375 56.9998 2.82625 53.7817 4.53625C48.9282 7.13797 43.5067 8.49941 37.9998 8.49941C32.4929 8.49941 27.0715 7.13797 22.2179 4.53625C19.0117 2.82625 14.0717 1.92375 8.81107 7.38625C0.712321 15.77 1.98295 30.8037 3.46732 39.0212C6.21045 54.2806 13.5017 68.685 20.0567 71.82C21.3867 72.4612 22.6573 72.7819 23.8448 72.7819C24.6879 72.7819 25.4836 72.6156 26.2436 72.2831C30.0673 70.6087 31.7061 65.2056 33.2854 59.9925C34.5561 55.8006 35.8742 51.4544 37.8336 51.7275C37.9404 51.7512 38.0354 51.7512 38.1423 51.7275C40.1136 51.4781 41.4317 55.8125 42.7023 59.9925C44.2817 65.2175 45.9086 70.6087 49.7442 72.2831C51.5492 73.0787 53.6273 72.9244 55.9311 71.82C64.6592 67.64 75.1092 42.4175 73.4348 23.3106H73.4467ZM48.3786 18.6437C48.3786 15.96 50.5517 13.7631 53.2354 13.7631C55.9192 13.7631 58.0923 15.96 58.0923 18.6437C58.0923 21.3275 55.9192 23.5244 53.2354 23.5244C50.5517 23.5244 48.3786 21.3394 48.3786 18.6437ZM59.5054 36.0169C57.2848 36.0169 55.4917 34.2119 55.4917 31.9794C55.4917 29.7469 57.2848 27.9419 59.5054 27.9419C61.7261 27.9419 63.5311 29.7587 63.5311 31.9794C63.5311 34.2 61.7261 36.0169 59.5054 36.0169Z" fill="#0079FF"/>
</svg>
