<svg width="76" height="76" viewBox="0 0 76 76" fill="none" xmlns="http://www.w3.org/2000/svg">
<path d="M51.5062 1.58331C48.4816 1.4895 45.4641 1.92899 42.592 2.88165C39.6313 3.99027 36.3694 3.99027 33.4087 2.88165C30.5365 1.92899 27.5191 1.4895 24.4945 1.58331C12.667 1.58331 12.667 12.8725 12.667 16.0866C12.667 24.89 18.557 29.64 19.7287 36.9233C19.85 37.6726 20.2366 38.3534 20.8178 38.8416C21.399 39.3299 22.1363 39.5931 22.8953 39.5833H53.1528C53.9118 39.5931 54.6491 39.3299 55.2304 38.8416C55.8116 38.3534 56.1981 37.6726 56.3195 36.9233C57.4278 29.7191 63.3337 24.795 63.3337 16.0866C63.3337 12.8725 63.3337 1.58331 51.5062 1.58331ZM27.6137 68.4C32.1262 72.1683 33.947 74.4166 38.0003 74.4166C42.0537 74.4166 44.017 72.0416 48.387 68.4C48.9578 67.9233 49.4401 67.3498 49.812 66.7058C23.7503 68.0833 26.6953 67.6241 27.6137 68.4ZM53.8337 60.1666L50.667 60.325V58.7416L25.3337 60.0083V61.5916L22.167 61.75C21.9591 61.7604 21.7552 61.8116 21.5671 61.9008C21.379 61.99 21.2103 62.1153 21.0706 62.2697C20.9309 62.4241 20.823 62.6045 20.7531 62.8005C20.6831 62.9966 20.6524 63.2045 20.6628 63.4125C20.6732 63.6204 20.7245 63.8242 20.8136 64.0124C20.9028 64.2005 21.0282 64.3692 21.1826 64.5089C21.4943 64.791 21.9054 64.9376 22.3253 64.9166L53.992 63.3333C54.4119 63.3123 54.8063 63.1254 55.0884 62.8136C55.3705 62.5018 55.5172 62.0907 55.4962 61.6708C55.4752 61.2509 55.2882 60.8565 54.9764 60.5744C54.6647 60.2923 54.2536 60.1456 53.8337 60.1666ZM53.8337 52.25L50.667 52.4083V50.825L25.3337 52.0916V53.675L22.167 53.8333C21.9591 53.8437 21.7552 53.895 21.5671 53.9841C21.379 54.0733 21.2103 54.1987 21.0706 54.353C20.9309 54.5074 20.823 54.6878 20.7531 54.8839C20.6831 55.0799 20.6524 55.2879 20.6628 55.4958C20.6732 55.7037 20.7245 55.9076 20.8136 56.0957C20.9028 56.2838 21.0282 56.4525 21.1826 56.5922C21.4943 56.8743 21.9054 57.021 22.3253 57L53.992 55.4166C54.4119 55.3956 54.8063 55.2087 55.0884 54.8969C55.3705 54.5851 55.5172 54.1741 55.4962 53.7541C55.4752 53.3342 55.2882 52.9398 54.9764 52.6577C54.6647 52.3757 54.2536 52.229 53.8337 52.25ZM53.8337 44.3333L50.667 44.4916V42.75H25.3337V45.7583L22.167 45.9166C21.7471 45.9376 21.3527 46.1246 21.0706 46.4364C20.7885 46.7481 20.6418 47.1592 20.6628 47.5791C20.6838 47.9991 20.8708 48.3935 21.1826 48.6755C21.4943 48.9576 21.9054 49.1043 22.3253 49.0833L53.992 47.5C54.4119 47.479 54.8063 47.292 55.0884 46.9803C55.3705 46.6685 55.5172 46.2574 55.4962 45.8375C55.4752 45.4176 55.2882 45.0232 54.9764 44.7411C54.6647 44.459 54.2536 44.3123 53.8337 44.3333Z" fill="#0079FF"/>
</svg>
