<svg width="30" height="31" viewBox="0 0 30 31" fill="none" xmlns="http://www.w3.org/2000/svg">
<path d="M6.59504 30.9229C5.1405 30.9229 3.66942 29.7642 2.18182 27.4469C0.727273 25.094 0 22.3845 0 19.3186C0 15.4327 1.17355 11.4041 3.52066 7.23301C5.86777 3.02624 8.16529 0.922852 10.4132 0.922852V3.22232C8 4.75529 6.56198 8.1421 6.09917 13.3827C6.09917 17.6252 8.23141 20.495 12.4959 21.9924V24.2384L6.59504 30.9229ZM24.0992 30.9229C22.6446 30.9229 21.1736 29.7642 19.686 27.4469C18.2314 25.094 17.5041 22.3845 17.5041 19.3186C17.5041 15.4327 18.6777 11.4041 21.0248 7.23301C23.3719 3.02624 25.6694 0.922852 27.9174 0.922852V3.22232C25.5041 4.75529 24.0661 8.1421 23.6033 13.3827C23.6033 17.6252 25.7355 20.495 30 21.9924V24.2384L24.0992 30.9229Z" fill="#0079FF"/>
</svg>
