<svg width="55" height="55" viewBox="0 0 55 55" fill="none" xmlns="http://www.w3.org/2000/svg">
<path d="M49.9846 4.14128C49.9551 3.97837 49.8792 3.82745 49.7659 3.70667C49.6527 3.58588 49.507 3.50038 49.3463 3.46044C49.1856 3.4205 49.0169 3.42782 48.8602 3.48152C48.7036 3.53522 48.5659 3.63302 48.4635 3.76315C47.2432 5.31862 43.5049 8.2319 38.2026 11.7639C36.6496 12.79 35.4707 14.2915 34.8424 16.0436L34.3354 17.4272L32.7456 16.4303L32.4491 16.31C29.5616 15.791 25.0988 19.2044 21.8659 22.1538C21.2155 22.7488 20.6957 23.4722 20.3392 24.2784C19.9827 25.0846 19.7973 25.9559 19.7948 26.8374V31.0311L19.3307 30.9538C17.9385 30.7303 16.6065 31.6327 16.2799 33.0077L14.0198 42.9678C14.6815 42.5382 15.3776 42.0741 16.0995 41.5928C21.5763 37.8494 28.4281 32.3597 35.4956 24.6236C35.6248 24.4814 35.7981 24.3868 35.9876 24.3548C36.1771 24.3229 36.3718 24.3555 36.5406 24.4475C37.0244 24.7156 37.1309 25.3721 36.758 25.7803C28.9136 34.3707 21.3425 40.2325 15.5495 44.0249C14.8276 44.4975 14.1401 44.9358 13.4784 45.3397C8.27915 48.5538 4.95337 49.8686 4.87602 49.903C4.43774 50.0749 4.2143 50.5647 4.38618 51.0116C4.42612 51.1171 4.48663 51.2135 4.56419 51.2954C4.64175 51.3773 4.73481 51.4429 4.83797 51.4885C4.94113 51.5341 5.05232 51.5587 5.16507 51.5609C5.27783 51.5631 5.3899 51.5429 5.49477 51.5014C5.57212 51.4757 8.99243 50.1264 14.3206 46.8436C15.0596 47.1014 15.8159 47.2991 16.5893 47.4366C17.6979 47.6343 18.8237 47.7288 19.9495 47.7202C25.6127 47.7202 31.1557 45.4944 33.751 44.2913C34.3605 44.004 34.8399 43.4985 35.0945 42.8747C35.3492 42.2509 35.3604 41.5542 35.126 40.9225L35.0057 40.6046C36.6127 40.2694 38.2971 39.8741 39.5174 39.5819C40.6945 39.3004 41.7656 38.6858 42.6026 37.8116C53.7659 26.0639 50.1479 5.03503 49.9846 4.14128Z" fill="#75A36F"/>
</svg>
