<svg width="55" height="56" viewBox="0 0 55 56" fill="none" xmlns="http://www.w3.org/2000/svg">
<g clip-path="url(#clip0_25_234)">
<path d="M36.9552 28.1942L35.0586 21.4949L28.4752 19.5651C26.4157 18.9614 24.9773 17.0165 24.9773 14.8355C24.9773 12.6544 26.4157 10.71 28.4752 10.1058L35.0586 8.1764L35.4337 6.85108C31.8946 4.78492 27.7195 4.81995 24.0881 7.06342C22.1864 8.23749 19.8235 8.23749 17.9222 7.06385C7.84473 0.838016 -3.59948 12.4745 1.07925 24.1003C2.51224 27.6652 3.15005 31.4831 2.92388 35.1408C2.40985 43.4845 6.16752 50.9074 11.9398 54.7445C12.4697 55.0966 12.6674 55.0133 15.4482 54.9825C16.3319 54.9727 17.0431 54.2412 17.0431 53.3419V41.6101C17.0431 39.3782 18.764 37.5265 20.8789 37.4821C23.0839 37.4291 24.8749 39.3855 24.8749 41.7058V53.1496C24.8749 54.0558 25.5966 54.7902 26.487 54.7902C29.6287 54.7902 29.7991 54.8757 30.3337 54.501C36.0921 50.4682 39.415 43.1264 39.0055 35.3399C38.9287 33.9082 38.9723 32.473 39.1318 31.0559C38.1004 30.4287 37.3018 29.4199 36.9552 28.1942Z" fill="white"/>
<path d="M53.8385 13.2597L45.5423 10.8278L43.1525 2.38585C42.7069 0.81102 40.501 0.806748 40.0541 2.38585L37.6644 10.8278L29.3681 13.2597C27.8197 13.7134 27.8176 15.9582 29.3681 16.4128L37.6644 18.8442L40.0541 27.2862C40.4997 28.861 42.7057 28.8653 43.1525 27.2862L45.5423 18.8442L53.8385 16.4128C55.3865 15.9586 55.389 13.7143 53.8385 13.2597Z" fill="white"/>
</g>
<defs>
<clipPath id="clip0_25_234">
<rect width="55" height="56" fill="white"/>
</clipPath>
</defs>
</svg>
