<svg width="120" height="120" viewBox="0 0 120 120" fill="none" xmlns="http://www.w3.org/2000/svg">
<path d="M106 13.9C101.05 8.95 94.5002 6.25 87.5002 6.25C79.4002 6.25 71.9002 9.9 66.9002 16.25C66.8002 16.4 66.7002 16.5 66.6002 16.65C64.9502 18.85 63.7002 21.15 62.8502 23.45C61.8002 26.3 61.2002 29.45 61.2002 32.5C61.2002 38.5 63.2502 44.3 66.9002 48.75C70.0002 52.8 74.3002 55.85 79.3502 57.5C82.0002 58.35 84.7502 58.8 87.5002 58.8C92.7002 58.8 97.8002 57.25 102.15 54.35C109.4 49.45 113.75 41.3 113.75 32.55C113.75 25.5 111 18.9 106 13.95V13.9ZM97.5002 36.25H91.2502V42.5C91.2502 44.55 89.5502 46.25 87.5002 46.25C85.4502 46.25 83.7502 44.55 83.7502 42.5V36.25H77.5002C75.4502 36.25 73.7502 34.55 73.7502 32.5C73.7502 30.45 75.4502 28.75 77.5002 28.75H83.7502V22.5C83.7502 20.45 85.4502 18.75 87.5002 18.75C89.5502 18.75 91.2502 20.45 91.2502 22.5V28.75H97.5002C99.5502 28.75 101.25 30.45 101.25 32.5C101.25 34.55 99.5502 36.25 97.5002 36.25Z" fill="#0079FF"/>
<path d="M87.4998 63.7499C84.2498 63.7499 80.9998 63.2499 77.8498 62.2499C71.8498 60.2499 66.6998 56.6499 62.9498 51.7999C58.6498 46.5499 56.2498 39.6499 56.2498 32.4999C56.2498 29.2999 56.8498 26.0999 57.8498 23.0499C54.6498 23.3999 51.3998 23.1499 48.0498 22.0499L34.2998 17.4499C27.6498 15.2499 20.8498 16.0499 15.6998 19.5999C9.6998 23.5999 6.2998 30.3999 6.2998 38.1999C6.3998 81.7999 27.0498 105.3 33.4498 111.45C34.9998 112.9 37.0498 113.7 39.1498 113.7H41.8998C46.4998 113.7 50.1998 110 50.1998 105.4V78.1499C50.1998 75.2499 52.5498 72.8999 55.3998 72.8999C58.2498 72.8999 60.6498 75.2499 60.6498 78.1499V105.4C60.6498 110 64.3498 113.7 68.9498 113.7H71.6998C73.8498 113.7 75.8498 112.9 77.4498 111.4C82.2498 106.7 97.3498 89.7999 102.6 59.7499C97.9498 62.2999 92.7998 63.6999 87.4998 63.6999V63.7499Z" fill="#0079FF"/>
</svg>
