<svg width="106" height="106" viewBox="0 0 106 106" fill="none" xmlns="http://www.w3.org/2000/svg">
<path d="M91.8668 62.4516L75.6576 55.2525C74.8185 54.855 73.8027 54.855 72.9635 55.2525L56.7102 62.4516C55.5177 62.9816 54.7227 64.1741 54.7227 65.4991V81.355C54.7227 84.6675 55.9152 87.8916 57.991 90.365C58.7418 91.3366 59.7577 92.2641 61.0385 93.1033L70.2693 99.2425C71.506 100.037 72.8752 100.479 74.2885 100.479C75.7018 100.479 77.071 100.082 78.3077 99.2425L87.5385 93.1033C91.4693 90.4975 93.8543 86.0808 93.8543 81.3108V65.455C93.8543 64.13 93.1035 62.9375 91.8668 62.4075V62.4516Z" fill="#0079FF"/>
<path d="M68.4585 5.52073H24.2918C17.5785 5.52073 12.146 10.9532 12.146 17.6666V79.4999C12.146 86.2132 17.5785 91.6457 24.2918 91.6457H53.5302C51.5427 88.6866 50.3502 85.1091 50.3502 81.3549V65.4991C50.3502 62.4516 52.161 59.6691 54.9435 58.4324L71.1968 51.2332C73.1843 50.3499 75.481 50.3499 77.4685 51.2332L80.6043 52.6024V17.6224C80.6043 10.9091 75.1718 5.47656 68.4585 5.47656V5.52073ZM28.7085 23.1874H50.7918C52.6027 23.1874 54.1043 24.6891 54.1043 26.4999C54.1043 28.3107 52.6027 29.8124 50.7918 29.8124H28.7085C26.8977 29.8124 25.396 28.3107 25.396 26.4999C25.396 24.6891 26.8977 23.1874 28.7085 23.1874ZM41.9585 65.1457H28.7085C26.8977 65.1457 25.396 63.6441 25.396 61.8332C25.396 60.0224 26.8977 58.5207 28.7085 58.5207H41.9585C43.7693 58.5207 45.271 60.0224 45.271 61.8332C45.271 63.6441 43.7693 65.1457 41.9585 65.1457ZM64.0418 47.4791H28.7085C26.8977 47.4791 25.396 45.9774 25.396 44.1666C25.396 42.3557 26.8977 40.8541 28.7085 40.8541H64.0418C65.8527 40.8541 67.3543 42.3557 67.3543 44.1666C67.3543 45.9774 65.8527 47.4791 64.0418 47.4791Z" fill="#0079FF"/>
</svg>
