<svg width="121" height="120" viewBox="0 0 121 120" fill="none" xmlns="http://www.w3.org/2000/svg">
<path fill-rule="evenodd" clip-rule="evenodd" d="M60.5 3.96704C91.6829 3.96704 117 29.075 117 60.0001C117 90.9252 91.6829 116.033 60.5 116.033C29.3172 116.033 4 90.9252 4 60.0001C4 29.075 29.3172 3.96704 60.5 3.96704ZM57.8249 89.0071C59.3332 90.3936 61.667 90.3936 63.1753 89.0071C63.1753 89.0071 77.3555 75.8979 82.5062 71.0505C85.4336 68.2984 87.6674 64.9259 89.0601 61.1679C92.8548 50.9569 89.6856 44.2328 84.4245 39.4061C78.6169 34.079 67.8004 33.0106 60.5 40.5269C53.1998 33.0106 42.3831 34.079 36.5755 39.4061C31.3146 44.2328 28.1452 50.9567 31.9399 61.173C33.3326 64.9259 35.5664 68.2982 38.4938 71.0505C43.6445 75.8979 57.8249 89.0071 57.8249 89.0071Z" fill="#0079FF"/>
</svg>
