<svg width="122" height="122" viewBox="0 0 122 122" fill="none" xmlns="http://www.w3.org/2000/svg">
<path d="M105.733 71.8782L87.0774 63.5924C86.1116 63.1349 84.9424 63.1349 83.9766 63.5924L65.2699 71.8782C63.8974 72.4882 62.9824 73.8607 62.9824 75.3857V93.6349C62.9824 97.4474 64.3549 101.158 66.7441 104.005C67.6083 105.123 68.7774 106.191 70.2516 107.157L80.8758 114.222C82.2991 115.137 83.8749 115.646 85.5016 115.646C87.1283 115.646 88.7041 115.188 90.1274 114.222L100.752 107.157C105.276 104.157 108.021 99.0741 108.021 93.5841V75.3349C108.021 73.8099 107.157 72.4374 105.733 71.8274V71.8782Z" fill="#0079FF"/>
<path d="M78.792 6.35406H27.9587C20.232 6.35406 13.9795 12.6066 13.9795 20.3332V91.4999C13.9795 99.2266 20.232 105.479 27.9587 105.479H61.6103C59.3228 102.073 57.9503 97.9557 57.9503 93.6349V75.3857C57.9503 71.8782 60.0345 68.6757 63.237 67.2524L81.9437 58.9666C84.2312 57.9499 86.8745 57.9499 89.162 58.9666L92.7712 60.5424V20.2824C92.7712 12.5557 86.5187 6.30322 78.792 6.30322V6.35406ZM33.042 26.6874H58.4587C60.5428 26.6874 62.2712 28.4157 62.2712 30.4999C62.2712 32.5841 60.5428 34.3124 58.4587 34.3124H33.042C30.9578 34.3124 29.2295 32.5841 29.2295 30.4999C29.2295 28.4157 30.9578 26.6874 33.042 26.6874ZM48.292 74.9791H33.042C30.9578 74.9791 29.2295 73.2507 29.2295 71.1666C29.2295 69.0824 30.9578 67.3541 33.042 67.3541H48.292C50.3762 67.3541 52.1045 69.0824 52.1045 71.1666C52.1045 73.2507 50.3762 74.9791 48.292 74.9791ZM73.7087 54.6457H33.042C30.9578 54.6457 29.2295 52.9174 29.2295 50.8332C29.2295 48.7491 30.9578 47.0207 33.042 47.0207H73.7087C75.7928 47.0207 77.5212 48.7491 77.5212 50.8332C77.5212 52.9174 75.7928 54.6457 73.7087 54.6457Z" fill="#0079FF"/>
</svg>
