<svg width="121" height="120" viewBox="0 0 121 120" fill="none" xmlns="http://www.w3.org/2000/svg">
<path fill-rule="evenodd" clip-rule="evenodd" d="M45.1478 54.075C45.1478 54.075 47.5375 59.78 47.5325 59.78C48.5761 60.285 49.5844 60.865 50.5474 61.505L56.7234 60.705C57.9788 60.54 59.2291 61.01 60.061 61.955C62.7482 65.01 64.8052 68.545 66.1312 72.38C66.5396 73.565 66.3228 74.875 65.5514 75.87C65.5514 75.87 61.7651 80.78 61.7651 80.775C61.8458 81.925 61.8458 83.08 61.7651 84.22L65.5514 89.13C66.3228 90.125 66.5396 91.435 66.1312 92.62C64.8052 96.455 62.7482 99.99 60.061 103.045C59.2291 103.99 57.9788 104.46 56.7234 104.295L50.5474 103.495C49.5844 104.135 48.5761 104.715 47.5375 105.22L45.1478 110.925C44.6638 112.085 43.6252 112.925 42.3849 113.165C38.3768 113.945 34.2578 113.945 30.2496 113.165C29.0094 112.925 27.9708 112.085 27.4868 110.925C27.4868 110.925 25.097 105.22 25.1021 105.22C24.0585 104.715 23.0501 104.135 22.0872 103.495L15.9111 104.295C14.6558 104.46 13.4054 103.99 12.5735 103.045C9.88634 99.99 7.82934 96.455 6.50338 92.62C6.09501 91.435 6.3118 90.125 7.08317 89.13C7.08317 89.13 10.8695 84.22 10.8695 84.225C10.7888 83.075 10.7888 81.92 10.8695 80.78L7.08317 75.87C6.3118 74.875 6.09501 73.565 6.50338 72.38C7.82934 68.545 9.88634 65.01 12.5735 61.955C13.4054 61.01 14.6558 60.54 15.9111 60.705L22.0872 61.505C23.0501 60.865 24.0585 60.285 25.097 59.78L27.4868 54.075C27.9708 52.915 29.0094 52.075 30.2496 51.835C34.2578 51.055 38.3768 51.055 42.3849 51.835C43.6252 52.075 44.6638 52.915 45.1478 54.075ZM36.3148 73.07C31.0714 73.07 26.8112 77.295 26.8112 82.5C26.8112 87.705 31.0714 91.93 36.3148 91.93C41.5631 91.93 45.8233 87.705 45.8233 82.5C45.8233 77.295 41.5631 73.07 36.3148 73.07Z" fill="#0079FF"/>
<path fill-rule="evenodd" clip-rule="evenodd" d="M43.9229 47.06C43.8977 45.91 43.928 44.76 44.0238 43.615L38.7502 36.79C37.9839 35.79 37.7671 34.48 38.1754 33.295C39.8694 28.39 42.5062 23.86 45.9396 19.955C46.7715 19.01 48.0269 18.54 49.2822 18.7C49.2822 18.7 57.8783 19.815 57.8783 19.82C59.3353 18.815 60.8781 17.935 62.4813 17.18L65.8038 9.24C66.2928 8.08 67.3264 7.24 68.5717 7C73.699 6 78.9726 6 84.1 7C85.3402 7.24 86.3788 8.08 86.8628 9.24C86.8628 9.24 90.1903 17.18 90.1853 17.18C91.7936 17.935 93.3313 18.815 94.7934 19.815L103.389 18.7C104.645 18.54 105.895 19.01 106.727 19.955C110.165 23.86 112.802 28.39 114.496 33.295C114.905 34.48 114.688 35.79 113.916 36.79C113.916 36.79 108.648 43.615 108.648 43.61C108.794 45.365 108.794 47.13 108.648 48.885L113.916 55.71C114.688 56.71 114.905 58.02 114.496 59.205C112.802 64.11 110.165 68.64 106.727 72.545C105.895 73.49 104.645 73.96 103.389 73.8C103.389 73.8 94.7934 72.685 94.7934 72.68C93.3363 73.685 91.7936 74.565 90.1903 75.32L86.8628 83.26C86.3788 84.42 85.3402 85.26 84.1 85.5C79.1793 86.46 74.1225 86.5 69.1918 85.62L66.8676 82.605C66.8676 82.535 66.8676 82.465 66.8676 82.395C67.9868 80.945 69.5548 78.915 69.5548 78.915C71.3496 76.59 71.8538 73.53 70.9009 70.76C69.3632 66.315 66.9734 62.21 63.8627 58.67C61.9217 56.465 58.9975 55.365 56.0683 55.745L51.6821 56.315C51.6216 56.28 51.5611 56.245 51.5006 56.21C50.7947 54.525 49.8066 52.16 49.8066 52.16C48.7478 49.635 46.5648 47.755 43.9229 47.06ZM76.3358 33.82C69.4187 33.82 63.8022 39.39 63.8022 46.25C63.8022 53.11 69.4187 58.68 76.3358 58.68C83.253 58.68 88.8694 53.11 88.8694 46.25C88.8694 39.39 83.253 33.82 76.3358 33.82Z" fill="#0079FF"/>
</svg>
