<svg width="55" height="58" viewBox="0 0 55 58" fill="none" xmlns="http://www.w3.org/2000/svg">
<g clip-path="url(#clip0_25_218)">
<path d="M50.6856 37.1903C50.6856 33.7444 48.0272 30.9409 44.7595 30.9409C36.9085 31.255 36.9107 43.1267 44.7596 43.4397C48.0272 43.4397 50.6856 40.6362 50.6856 37.1903Z" fill="white"/>
<path d="M6.0688 3.21941L9.52059 5.0395C10.3155 5.45853 11.2838 5.12038 11.6825 4.27961C12.0805 3.44019 11.7579 2.41953 10.9619 1.99982L7.51008 0.179733C6.71398 -0.239861 5.74622 0.10021 5.34822 0.939624C4.95022 1.77892 5.27281 2.7997 6.0688 3.21941Z" fill="white"/>
<path d="M33.4259 37.1898C33.4259 33.7439 30.7674 30.9404 27.4997 30.9404C19.6487 31.2546 19.6509 43.1262 27.4998 43.4392C30.7674 43.4392 33.4259 40.6357 33.4259 37.1898Z" fill="white"/>
<path d="M16.1671 37.1898C16.1671 33.7439 13.5086 30.9404 10.241 30.9404C2.38994 31.2547 2.39209 43.1262 10.2411 43.4392C13.5086 43.4392 16.1671 40.6357 16.1671 37.1898Z" fill="white"/>
<path d="M49.6819 44.9475C47.4087 43.9705 45.1691 43.4924 45.0749 43.4725C44.8663 43.4284 44.6515 43.4284 44.4428 43.4725C44.3486 43.4923 42.1091 43.9705 39.8359 44.9475C39.5092 45.088 39.1974 45.2322 38.9004 45.38C40.2499 46.9364 40.9633 48.7824 40.9633 50.7372V57.9999H53.3885C54.2784 57.9999 54.9998 57.2391 54.9998 56.3007V50.7372C54.9998 48.4122 53.2106 46.4643 49.6819 44.9475Z" fill="white"/>
<path d="M32.4227 44.9475C30.1496 43.9705 27.9099 43.4924 27.8157 43.4725C27.6071 43.4284 27.3924 43.4284 27.1836 43.4725C24.2881 44.0494 17.0406 46.4526 17.2587 50.7371V57.9999H37.7405V50.7372C37.7405 48.4122 35.9514 46.4643 32.4227 44.9475Z" fill="white"/>
<path d="M20.5228 23.1023C23.649 25.4571 26.7354 26.8628 26.8653 26.9215C27.2706 27.1046 27.7294 27.1046 28.1347 26.9215C32.5446 24.9863 41.508 19.0138 41.1925 12.6191C41.249 5.25439 32.9904 0.969186 27.5001 5.49228C18.1095 -1.51768 6.10926 12.9438 20.5228 23.1023Z" fill="white"/>
<path d="M45.4798 5.0395L48.9316 3.21941C49.7276 2.7997 50.0502 1.77904 49.6522 0.939624C49.2542 0.10021 48.2864 -0.239861 47.4903 0.179733L44.0385 1.99982C43.2425 2.41953 42.9199 3.44019 43.3179 4.27961C43.7166 5.12027 44.685 5.45841 45.4798 5.0395Z" fill="white"/>
<path d="M9.52059 22.0196L6.0688 23.8397C5.27281 24.2594 4.95022 25.28 5.34822 26.1194C5.74622 26.9589 6.71398 27.2989 7.51008 26.8793L10.9619 25.0592C11.7579 24.6395 12.0805 23.6189 11.6825 22.7795C11.2838 21.9387 10.3155 21.6005 9.52059 22.0196Z" fill="white"/>
<path d="M5.06297 15.2285H8.51476C10.6504 15.1449 10.6488 11.9129 8.51476 11.8301H5.06297C2.92742 11.9137 2.92903 15.1457 5.06297 15.2285Z" fill="white"/>
<path d="M44.0385 25.0592L47.4903 26.8793C48.2864 27.2989 49.2542 26.9589 49.6522 26.1194C50.0502 25.28 49.7276 24.2594 48.9316 23.8397L45.4798 22.0196C44.685 21.6005 43.7166 21.9387 43.3179 22.7795C42.9199 23.6188 43.2425 24.6395 44.0385 25.0592Z" fill="white"/>
<path d="M44.874 13.5293C44.874 14.4677 45.5955 15.2285 46.4854 15.2285H49.9371C52.0728 15.1449 52.0712 11.9129 49.9371 11.8301H46.4854C45.5955 11.8301 44.874 12.5909 44.874 13.5293Z" fill="white"/>
<path d="M5.31792 44.9475C1.78922 46.4643 0 48.4122 0 50.7372V56.3007C0 57.2391 0.721445 57.9999 1.61133 57.9999H14.0365V50.7372C14.0365 48.7826 14.7499 46.9364 16.0994 45.38C15.8025 45.2322 15.4908 45.088 15.1639 44.9475C12.8907 43.9705 10.6512 43.4924 10.557 43.4725C10.3484 43.4284 10.1336 43.4284 9.92492 43.4725C9.83071 43.4924 7.59107 43.9705 5.31792 44.9475Z" fill="white"/>
</g>
<defs>
<clipPath id="clip0_25_218">
<rect width="55" height="58" fill="white"/>
</clipPath>
</defs>
</svg>
