<svg width="96" height="76" viewBox="0 0 96 76" fill="none" xmlns="http://www.w3.org/2000/svg">
<path fill-rule="evenodd" clip-rule="evenodd" d="M5.96634 51.8197L0.591259 18.2309C0.237926 16.027 1.20959 13.8187 3.07343 12.5909C4.93726 11.363 7.34434 11.3409 9.23026 12.529L26.071 23.1644L43.72 2.93603C44.7977 1.69936 46.3612 0.988281 47.9998 0.988281C49.6383 0.988281 51.2018 1.69936 52.2795 2.93603L69.9285 23.1644L86.7693 12.529C88.6552 11.3409 91.0623 11.363 92.9261 12.5909C94.7899 13.8187 95.7616 16.027 95.4083 18.2309L90.0332 51.8197H5.96634ZM88.9732 58.4447L87.4053 68.2365C86.7825 72.1408 83.4126 75.0116 79.4641 75.0116H16.5354C12.5869 75.0116 9.21701 72.1408 8.59426 68.2365L7.02634 58.4447H88.9732Z" fill="#0079FF"/>
</svg>
