<svg width="55" height="55" viewBox="0 0 55 55" fill="none" xmlns="http://www.w3.org/2000/svg">
<g clip-path="url(#clip0_21_632)">
<path d="M31.8871 17.9451C31.3726 17.5724 30.7302 17.3027 29.96 17.1373C29.1897 16.9719 28.2896 16.8892 27.2615 16.8892H23.8101V26.3799H26.8759C27.9404 26.3799 28.8804 26.2972 29.6936 26.1317C30.5078 25.9663 31.1932 25.6978 31.7496 25.3239C32.3061 24.9512 32.725 24.4581 33.0075 23.8458C33.289 23.2335 33.4297 22.4869 33.4297 21.6061C33.4297 20.737 33.3008 20.0033 33.044 19.4028C32.7873 18.8045 32.4017 18.3179 31.8871 17.9451Z" fill="#0079FF"/>
<path d="M54.4425 15.9072C53.6572 7.77327 47.3021 1.34299 39.282 0.568481C31.4456 -0.188843 23.5544 -0.188843 15.718 0.568481C7.69785 1.34299 1.34277 7.77327 0.55752 15.9072C-0.18584 23.618 -0.18584 31.3824 0.55752 39.0921C1.3417 47.2261 7.69678 53.6564 15.7169 54.432C23.5533 55.1893 31.4445 55.1893 39.281 54.432C47.3011 53.6574 53.6562 47.2272 54.4403 39.0921C55.1858 31.3824 55.1858 23.618 54.4425 15.9072ZM35.7704 24.7277C35.3601 25.6579 34.7639 26.4346 33.9808 27.0587C33.1977 27.6828 32.2427 28.1512 31.1169 28.4627C29.9911 28.7753 28.7053 28.9311 27.2615 28.9311H23.8101V32.7317H29.6205C30.3252 32.7317 30.8967 33.3031 30.8967 34.0078C30.8967 34.7125 30.3252 35.284 29.6205 35.284H23.8101V39.1576C23.8101 39.9891 23.1365 40.6626 22.3051 40.6626C21.4736 40.6626 20.8001 39.9891 20.8001 39.1576V35.284H19.8913C19.1866 35.284 18.6151 34.7125 18.6151 34.0078C18.6151 33.3031 19.1866 32.7317 19.8913 32.7317H20.8001V28.9311H19.8913C19.1866 28.9311 18.6151 28.3596 18.6151 27.6549C18.6151 26.9502 19.1866 26.3787 19.8913 26.3787H20.8001V15.947C20.8001 15.0575 21.522 14.3357 22.4114 14.3357H27.9232C29.049 14.3357 30.1232 14.4796 31.1448 14.7675C32.1664 15.0554 33.0666 15.4926 33.8433 16.0802C34.6199 16.6678 35.2387 17.4079 35.6974 18.3017C36.1561 19.1954 36.3859 20.2482 36.3859 21.4588C36.3849 22.7092 36.1808 23.7985 35.7704 24.7277Z" fill="#0079FF"/>
</g>
<defs>
<clipPath id="clip0_21_632">
<rect width="55" height="55" fill="white"/>
</clipPath>
</defs>
</svg>
