<svg width="92" height="92" viewBox="0 0 92 92" fill="none" xmlns="http://www.w3.org/2000/svg">
<path d="M90.6568 26.7847C89.3553 13.3028 78.8219 2.64484 65.5288 1.36111C52.5401 0.105867 39.4607 0.105867 26.472 1.36111C13.1789 2.64484 2.64553 13.3028 1.34399 26.7847C0.111898 39.565 0.111898 52.4344 1.34399 65.213C2.64375 78.6948 13.1771 89.3528 26.4702 90.6383C39.4589 91.8936 52.5384 91.8936 65.527 90.6383C78.8201 89.3546 89.3535 78.6966 90.6533 65.213C91.8889 52.4344 91.8889 39.565 90.6568 26.7847ZM59.7084 41.4043C59.0282 42.9462 58.0401 44.2335 56.7421 45.2679C55.4441 46.3024 53.8613 47.0787 51.9953 47.595C50.1294 48.1131 47.9981 48.3713 45.6051 48.3713H39.8844V54.6707H49.5151C50.6831 54.6707 51.6303 55.6179 51.6303 56.7859C51.6303 57.9539 50.6831 58.9011 49.5151 58.9011H39.8844V65.3216C39.8844 66.6997 38.7681 67.816 37.39 67.816C36.0119 67.816 34.8955 66.6997 34.8955 65.3216V58.9011H33.3892C32.2212 58.9011 31.274 57.9539 31.274 56.7859C31.274 55.6179 32.2212 54.6707 33.3892 54.6707H34.8955V48.3713H33.3892C32.2212 48.3713 31.274 47.4241 31.274 46.2561C31.274 45.0881 32.2212 44.1409 33.3892 44.1409H34.8955V26.8506C34.8955 25.3763 36.092 24.1798 37.5662 24.1798H46.7019C48.5679 24.1798 50.3484 24.4184 52.0416 24.8956C53.7348 25.3728 55.2269 26.0974 56.5142 27.0714C57.8015 28.0453 58.827 29.272 59.5873 30.7534C60.3476 32.2348 60.7286 33.9796 60.7286 35.9862C60.7268 38.0587 60.3885 39.8642 59.7084 41.4043Z" fill="#0079FF"/>
</svg>
