<svg width="120" height="120" viewBox="0 0 120 120" fill="none" xmlns="http://www.w3.org/2000/svg">
<path fill-rule="evenodd" clip-rule="evenodd" d="M12.4152 75.6451L6.33022 37.6201C5.93022 35.1251 7.03022 32.6251 9.14022 31.2351C11.2502 29.8451 13.9752 29.8201 16.1102 31.1651L35.1752 43.2051L55.1552 20.3051C56.3752 18.9051 58.1452 18.1001 60.0002 18.1001C61.8552 18.1001 63.6252 18.9051 64.8452 20.3051L84.8252 43.2051L103.89 31.1651C106.025 29.8201 108.75 29.8451 110.86 31.2351C112.97 32.6251 114.07 35.1251 113.67 37.6201L107.585 75.6451H12.4152ZM106.385 83.1451L104.61 94.2301C103.905 98.6501 100.09 101.9 95.6202 101.9H24.3802C19.9102 101.9 16.0952 98.6501 15.3902 94.2301L13.6152 83.1451H106.385Z" fill="#0079FF"/>
</svg>
