<svg width="55" height="55" viewBox="0 0 55 55" fill="none" xmlns="http://www.w3.org/2000/svg">
<g clip-path="url(#clip0_25_215)">
<path d="M47.8065 28.6146C49.1786 28.6146 50.4973 28.2181 51.6601 27.4376C53.5877 26.1347 54.9257 23.7712 54.9776 21.3133C55.0375 20.0639 54.9776 18.7406 54.7951 17.2661C54.6924 16.4225 53.9492 15.7691 52.9919 15.8641C51.3555 16.0747 49.6786 16.8515 48.2806 18.0676C48.2147 17.5233 48.1277 16.9832 48.0195 16.4476C49.5705 15.6793 50.7695 14.4455 51.3895 12.9057C52.2879 10.7499 52.0063 8.0874 50.6515 5.95681C49.8977 4.76873 49.0858 3.6783 48.2408 2.71215C47.6539 2.04335 46.6406 1.97417 45.9687 2.56112C44.5116 3.83416 43.5297 5.68149 43.1284 7.91907C42.7657 10.0667 43.0479 11.8777 43.8593 13.8399C47.2317 21.8518 44.1346 31.0127 37.119 35.4877C36.6224 35.7975 36.2301 36.2259 35.9614 36.7245H29.1111V30.142L34.7822 33.0865C35.3366 33.373 35.9902 33.3111 36.4722 32.959C36.9662 32.6002 37.2149 31.9944 37.1142 31.3917L35.7689 23.2973L41.6147 17.5396C42.049 17.1116 42.2047 16.4743 42.0159 15.8952C41.827 15.3146 41.3267 14.8897 40.724 14.7984L32.6485 13.5824L28.9679 5.44559C28.4456 4.2906 26.5541 4.2906 26.0317 5.44559L22.3511 13.5824L14.2756 14.7988C13.673 14.8901 13.1725 15.3149 12.9838 15.8955C12.7949 16.4746 12.9507 17.1119 13.385 17.5399L19.2308 23.2976L17.8854 31.392C17.7846 31.9946 18.0332 32.6005 18.5275 32.9593C19.0216 33.3181 19.673 33.3668 20.2174 33.0868L25.8885 30.1422V36.7247H18.9877C18.391 35.7245 17.4794 35.271 16.6254 34.6036C12.0997 30.9436 9.80679 25.6725 9.80679 20.6115C9.80679 14.1777 12.777 13.1562 11.8981 7.90038C11.4969 5.68009 10.5165 3.83427 9.06096 2.56133C8.39538 1.97599 7.37252 2.04206 6.78879 2.71236C5.93748 3.68485 5.12559 4.77689 4.37815 5.95541C3.02335 8.08601 2.73847 10.7484 3.63071 12.8885C4.25719 14.4426 5.45902 15.6797 7.01148 16.4486C6.90309 16.9847 6.8164 17.5251 6.75044 18.0698C5.34784 16.8515 3.64199 16.0746 2.00736 15.8642C1.58251 15.8185 1.15132 15.9271 0.813054 16.1915C0.474785 16.4542 0.254464 16.8429 0.204083 17.2678C0.0230785 18.7438 -0.0351438 20.0687 0.0199633 21.2867C0.0876387 23.8343 1.47327 26.204 3.38354 27.4503C4.50233 28.2214 5.82565 28.6162 7.20881 28.6162C7.53139 28.6162 7.85903 28.5773 8.18656 28.5341C8.39055 29.0319 8.59465 29.5286 8.83549 30.0095C7.38584 29.8221 5.57267 29.8679 3.79732 30.7485C2.97856 31.1545 2.66725 32.1513 3.08609 32.9436C3.65102 34.0184 4.32444 35.2599 5.12537 36.344C6.49037 38.3365 8.73516 39.7067 11.3865 39.7067C12.9905 39.7067 14.5325 39.0921 15.8049 37.9889C16.0022 38.1297 16.1876 38.2682 16.2205 38.3363V49.6155H14.6092C13.7185 49.6155 12.9978 50.3362 12.9978 51.2268C12.9978 52.1174 13.7185 52.8381 14.6092 52.8381H40.3903C41.2809 52.8381 42.0016 52.1174 42.0016 51.2268C42.0016 50.3362 41.2809 49.6155 40.3903 49.6155H38.7789V38.5093C38.7984 38.4094 38.8403 38.3157 38.8403 38.2118C38.966 38.1315 39.0746 38.033 39.1981 37.9504C42.5505 40.9077 47.2966 39.9997 49.9417 36.3535C50.6974 35.2029 51.4349 34.1078 52.0047 32.8712C52.3697 32.0797 52.0377 31.1403 51.2556 30.7532C49.7851 30.0249 48.1158 29.811 46.1882 30.0476C46.438 29.5518 46.6841 29.0538 46.8938 28.538C47.1995 28.5764 47.5052 28.6146 47.8065 28.6146ZM30.7225 46.3926H24.2772C23.3866 46.3926 22.6659 45.6719 22.6659 44.7813C22.6659 43.8907 23.3866 43.17 24.2772 43.17H30.7225C31.6131 43.17 32.3338 43.8907 32.3338 44.7813C32.3338 45.6719 31.6131 46.3926 30.7225 46.3926Z" fill="white"/>
</g>
<defs>
<clipPath id="clip0_25_215">
<rect width="55" height="55" fill="white"/>
</clipPath>
</defs>
</svg>
