<svg width="89" height="31" viewBox="0 0 89 31" fill="none" xmlns="http://www.w3.org/2000/svg">
<rect width="89" height="31" rx="15.5" fill="#DDDDDD"/>
<path d="M31.8494 10.8182V21H30.6165V11.9119H25.4858V21H24.2528V10.8182H31.8494ZM37.2797 21.1591C36.5903 21.1591 35.9854 20.995 35.465 20.6669C34.948 20.3388 34.5436 19.8797 34.252 19.2898C33.9636 18.6998 33.8194 18.0104 33.8194 17.2216C33.8194 16.4261 33.9636 15.7318 34.252 15.1385C34.5436 14.5452 34.948 14.0845 35.465 13.7564C35.9854 13.4283 36.5903 13.2642 37.2797 13.2642C37.969 13.2642 38.5723 13.4283 39.0893 13.7564C39.6097 14.0845 40.014 14.5452 40.3024 15.1385C40.594 15.7318 40.7399 16.4261 40.7399 17.2216C40.7399 18.0104 40.594 18.6998 40.3024 19.2898C40.014 19.8797 39.6097 20.3388 39.0893 20.6669C38.5723 20.995 37.969 21.1591 37.2797 21.1591ZM37.2797 20.1051C37.8033 20.1051 38.2342 19.9709 38.5723 19.7024C38.9103 19.4339 39.1606 19.081 39.323 18.6435C39.4854 18.206 39.5666 17.732 39.5666 17.2216C39.5666 16.7112 39.4854 16.2356 39.323 15.7947C39.1606 15.3539 38.9103 14.9976 38.5723 14.7259C38.2342 14.4541 37.8033 14.3182 37.2797 14.3182C36.756 14.3182 36.3251 14.4541 35.987 14.7259C35.649 14.9976 35.3987 15.3539 35.2363 15.7947C35.0739 16.2356 34.9927 16.7112 34.9927 17.2216C34.9927 17.732 35.0739 18.206 35.2363 18.6435C35.3987 19.081 35.649 19.4339 35.987 19.7024C36.3251 19.9709 36.756 20.1051 37.2797 20.1051ZM43.7042 19.2699L47.3832 13.3636H48.7354V21H47.5621V15.0938L43.9031 21H42.5309V13.3636H43.7042V19.2699ZM53.9867 21.1591C53.2708 21.1591 52.6543 20.9901 52.1373 20.652C51.6202 20.3139 51.2225 19.8482 50.9441 19.255C50.6657 18.6617 50.5265 17.9839 50.5265 17.2216C50.5265 16.446 50.669 15.7616 50.954 15.1683C51.2424 14.5717 51.6434 14.1061 52.1571 13.7713C52.6742 13.4332 53.2774 13.2642 53.9668 13.2642C54.5037 13.2642 54.9876 13.3636 55.4185 13.5625C55.8494 13.7614 56.2024 14.0398 56.4775 14.3977C56.7525 14.7557 56.9232 15.1733 56.9895 15.6506H55.8162C55.7267 15.3026 55.5279 14.9943 55.2196 14.7259C54.9147 14.4541 54.5037 14.3182 53.9867 14.3182C53.5293 14.3182 53.1283 14.4375 52.7836 14.6761C52.4422 14.9115 52.1754 15.2446 51.9831 15.6754C51.7942 16.103 51.6998 16.6051 51.6998 17.1818C51.6998 17.7718 51.7926 18.2855 51.9782 18.723C52.1671 19.1605 52.4322 19.5002 52.7736 19.7422C53.1183 19.9841 53.5227 20.1051 53.9867 20.1051C54.2916 20.1051 54.5684 20.0521 54.8169 19.946C55.0655 19.84 55.276 19.6875 55.4483 19.4886C55.6207 19.2898 55.7433 19.0511 55.8162 18.7727H56.9895C56.9232 19.2235 56.7592 19.6295 56.4973 19.9908C56.2388 20.3487 55.8958 20.6338 55.4682 20.8459C55.044 21.0547 54.5501 21.1591 53.9867 21.1591ZM58.7047 21V13.3636H59.878V16.6847H60.6536L63.3979 13.3636H64.9093L61.8269 17.0426L64.949 21H63.4377L60.932 17.7784H59.878V21H58.7047Z" fill="#878787"/>
</svg>
