<svg width="122" height="122" viewBox="0 0 122 122" fill="none" xmlns="http://www.w3.org/2000/svg">
<path fill-rule="evenodd" clip-rule="evenodd" d="M90.2298 80.0626V97.8542C90.2298 102.765 86.2496 106.75 81.334 106.75H40.6673C35.7517 106.75 31.7715 102.765 31.7715 97.8542V80.0626C31.7715 73.6576 34.3131 67.5169 38.8424 62.9877C43.3716 58.4584 49.5123 55.9167 55.9173 55.9167H66.084C72.489 55.9167 78.6296 58.4584 83.1589 62.9877C87.6881 67.5169 90.2298 73.6576 90.2298 80.0626Z" fill="#0079FF"/>
<path d="M61 53.375C71.5279 53.375 80.0625 44.8404 80.0625 34.3125C80.0625 23.7846 71.5279 15.25 61 15.25C50.4721 15.25 41.9375 23.7846 41.9375 34.3125C41.9375 44.8404 50.4721 53.375 61 53.375Z" fill="#0079FF"/>
<path d="M99.1253 53.3749C106.144 53.3749 111.834 47.6852 111.834 40.6666C111.834 33.648 106.144 27.9583 99.1253 27.9583C92.1067 27.9583 86.417 33.648 86.417 40.6666C86.417 47.6852 92.1067 53.3749 99.1253 53.3749Z" fill="#0079FF"/>
<path d="M22.8753 53.3749C29.8939 53.3749 35.5837 47.6852 35.5837 40.6666C35.5837 33.648 29.8939 27.9583 22.8753 27.9583C15.8567 27.9583 10.167 33.648 10.167 40.6666C10.167 47.6852 15.8567 53.3749 22.8753 53.3749Z" fill="#0079FF"/>
<path fill-rule="evenodd" clip-rule="evenodd" d="M26.7437 99.1251H15.2503C12.8917 99.1251 10.6296 98.1897 8.96224 96.5173C7.28983 94.85 6.35449 92.5879 6.35449 90.2292V69.8959C6.35449 66.1902 7.82866 62.6318 10.4466 60.0088C13.0696 57.3909 16.6279 55.9167 20.3337 55.9167H25.417C28.9652 55.9167 32.3761 57.2689 34.9635 59.6835C29.6616 65.1379 26.6878 72.4477 26.6878 80.0626V97.8542C26.6878 98.2812 26.7082 98.7082 26.7437 99.1251Z" fill="#0079FF"/>
<path fill-rule="evenodd" clip-rule="evenodd" d="M87.0371 59.6835C89.6245 57.2689 93.0354 55.9167 96.5836 55.9167H101.667C105.373 55.9167 108.931 57.3909 111.554 60.0088C114.172 62.6318 115.646 66.1902 115.646 69.8959V90.2292C115.646 92.5879 114.711 94.85 113.038 96.5173C111.371 98.1897 109.109 99.1251 106.75 99.1251H95.2569C95.2924 98.7082 95.3128 98.2812 95.3128 97.8542V80.0626C95.3128 72.4477 92.339 65.1379 87.0371 59.6835Z" fill="#0079FF"/>
</svg>
