<svg width="55" height="55" viewBox="0 0 55 55" fill="none" xmlns="http://www.w3.org/2000/svg">
<g clip-path="url(#clip0_21_636)">
<path d="M27.5002 45.2786C26.7498 45.2777 26.0099 45.103 25.3384 44.7683L7.34985 35.7739L0.890898 39.0035C0.623205 39.1372 0.398062 39.3429 0.240706 39.5975C0.0833495 39.852 0 40.1454 0 40.4446C0 40.7439 0.0833495 41.0372 0.240706 41.2918C0.398062 41.5463 0.623205 41.752 0.890898 41.8858L26.7796 54.8301C27.0033 54.9421 27.25 55.0004 27.5002 55.0004C27.7503 55.0004 27.997 54.9421 28.2207 54.8301L54.1094 41.8858C54.3771 41.752 54.6023 41.5463 54.7596 41.2918C54.917 41.0372 55.0003 40.7439 55.0003 40.4446C55.0003 40.1454 54.917 39.852 54.7596 39.5975C54.6023 39.3429 54.3771 39.1372 54.1094 39.0035L47.6505 35.774L29.6619 44.7683C28.9904 45.103 28.2505 45.2777 27.5002 45.2786Z" fill="#8D0094"/>
<path d="M54.1094 26.0591L47.6505 22.8297L29.6619 31.8239C28.9942 32.1578 28.2466 32.3343 27.5002 32.3343C26.7537 32.3343 26.0061 32.1578 25.3384 31.8239L7.34985 22.8296L0.890898 26.0591C0.623205 26.1929 0.398062 26.3986 0.240706 26.6531C0.0833495 26.9077 0 27.201 0 27.5003C0 27.7996 0.0833495 28.0929 0.240706 28.3474C0.398062 28.602 0.623205 28.8077 0.890898 28.9415L26.7796 41.8858C27.0033 41.9977 27.25 42.056 27.5002 42.056C27.7503 42.056 27.997 41.9977 28.2207 41.8858L54.1094 28.9415C54.3771 28.8077 54.6022 28.602 54.7595 28.3474C54.9168 28.0929 55.0002 27.7995 55.0002 27.5003C55.0002 27.2011 54.9168 26.9077 54.7595 26.6532C54.6022 26.3986 54.3771 26.1929 54.1094 26.0591Z" fill="#8D0094"/>
<path d="M26.7791 28.9416C27.0028 29.0535 27.2495 29.1118 27.4997 29.1118C27.7498 29.1118 27.9965 29.0535 28.2203 28.9416L54.1089 15.9972C54.3766 15.8635 54.6018 15.6578 54.7591 15.4032C54.9165 15.1487 54.9998 14.8553 54.9998 14.5561C54.9998 14.2568 54.9165 13.9635 54.7591 13.7089C54.6018 13.4544 54.3766 13.2487 54.1089 13.1149L28.2203 0.170564C27.9965 0.0587169 27.7498 0.000488281 27.4997 0.000488281C27.2495 0.000488281 27.0028 0.0587169 26.7791 0.170564L0.89041 13.1149C0.622717 13.2487 0.397574 13.4544 0.240217 13.7089C0.0828612 13.9635 -0.000488281 14.2568 -0.000488281 14.5561C-0.000488281 14.8553 0.0828612 15.1487 0.240217 15.4032C0.397574 15.6578 0.622717 15.8635 0.89041 15.9972L26.7791 28.9416Z" fill="#8D0094"/>
</g>
<defs>
<clipPath id="clip0_21_636">
<rect width="55" height="55" fill="white"/>
</clipPath>
</defs>
</svg>
