<svg width="20" height="20" viewBox="0 0 20 20" fill="none" xmlns="http://www.w3.org/2000/svg">
<path d="M12.4084 2.875H7.5917C7.25837 2.875 6.9917 2.60833 6.9917 2.275C6.9917 1.94167 7.25837 1.66667 7.5917 1.66667H12.4084C12.7417 1.66667 13.0084 1.93333 13.0084 2.26667C13.0084 2.6 12.7417 2.875 12.4084 2.875Z" fill="#292D32"/>
<path d="M16.6417 12.5H14.1917C13.1333 12.5 12.5 13.1333 12.5 14.1917V16.6417C12.5 17.7 13.1333 18.3333 14.1917 18.3333H16.6417C17.7 18.3333 18.3333 17.7 18.3333 16.6417V14.1917C18.3333 13.1333 17.7 12.5 16.6417 12.5ZM16.4083 16.2167L15.425 16.7833C15.225 16.9 15.025 16.9583 14.8417 16.9583C14.7 16.9583 14.575 16.925 14.4583 16.8583C14.1917 16.7 14.0417 16.3917 14.0417 15.9833V14.85C14.0417 14.4417 14.1917 14.1333 14.4583 13.975C14.725 13.8167 15.0667 13.85 15.425 14.05L16.4083 14.6167C16.7583 14.825 16.9583 15.1083 16.9583 15.4167C16.9583 15.725 16.7667 16.0083 16.4083 16.2167Z" fill="#292D32"/>
<path d="M11.6666 16.6417V14.1917C11.6666 12.6833 12.6832 11.6667 14.1916 11.6667H16.6416C16.8332 11.6667 17.0166 11.6833 17.1916 11.7167C17.2082 11.5167 17.2249 11.3167 17.2249 11.1083C17.2249 7.11667 13.9832 3.875 9.9999 3.875C6.01657 3.875 2.7749 7.11667 2.7749 11.1083C2.7749 15.0917 6.01657 18.3333 9.9999 18.3333C10.7082 18.3333 11.3832 18.2167 12.0332 18.0333C11.7999 17.6417 11.6666 17.175 11.6666 16.6417ZM10.6249 10.8333C10.6249 11.175 10.3416 11.4583 9.9999 11.4583C9.65824 11.4583 9.3749 11.175 9.3749 10.8333V6.66667C9.3749 6.325 9.65824 6.04167 9.9999 6.04167C10.3416 6.04167 10.6249 6.325 10.6249 6.66667V10.8333Z" fill="#292D32"/>
</svg>
