<svg width="55" height="55" viewBox="0 0 55 55" fill="none" xmlns="http://www.w3.org/2000/svg">
<path fill-rule="evenodd" clip-rule="evenodd" d="M30.7572 3.13018L34.032 5.58155C34.9277 6.25197 35.8705 6.59508 36.9875 6.65727L41.0718 6.88447C43.5175 7.02047 45.5038 8.68712 46.0624 11.0721L46.9955 15.055C47.2506 16.1442 47.7523 17.0131 48.5681 17.7787L51.5508 20.5782C53.3368 22.2544 53.787 24.8079 52.6821 26.994L50.8367 30.6447C50.332 31.6432 50.1578 32.6311 50.2906 33.742L50.7761 37.8038C51.0668 40.236 49.7703 42.4814 47.5188 43.4457L43.7583 45.0562C42.7299 45.4966 41.9614 46.1415 41.3491 47.0778L39.1101 50.5013C37.7695 52.5512 35.3329 53.438 32.9883 52.7294L29.0726 51.5461C28.0017 51.2224 26.9985 51.2224 25.9275 51.5461L22.0117 52.7294C19.6672 53.438 17.2306 52.5512 15.89 50.5013L13.651 47.0778C13.0386 46.1415 12.2701 45.4966 11.2417 45.0562L7.48111 43.4455C5.22955 42.4812 3.93308 40.2357 4.22376 37.8036L4.70931 33.7418C4.84208 32.6309 4.66784 31.643 4.16318 30.6445L2.31777 26.9937C1.21283 24.8078 1.66304 22.2543 3.44903 20.578L6.43182 17.7784C7.24758 17.0129 7.74913 16.144 8.00426 15.0548L8.93733 11.0719C9.49592 8.68701 11.4823 7.02036 13.9279 6.88426L18.0122 6.65706C19.1293 6.59497 20.072 6.25176 20.9677 5.58134L24.2426 3.12997C26.2034 1.66237 28.7963 1.66237 30.7572 3.13018ZM25.4108 28.9027L21.8568 25.3488C20.9357 24.4276 19.4416 24.4276 18.5205 25.3488C17.5994 26.2699 17.5994 27.764 18.5205 28.6851L23.7478 33.9122C24.6689 34.8333 26.1631 34.8334 27.0841 33.9122C30.2348 30.7615 33.3498 27.5753 36.486 24.4101C37.4005 23.4872 37.3976 21.9979 36.4758 21.0812C35.5539 20.1644 34.0603 20.167 33.1448 21.0916L25.4108 28.9027ZM27.4998 9.93138C22.6485 9.93138 18.2564 11.8979 15.0771 15.0771C11.8979 18.2565 9.93141 22.6485 9.93141 27.4998C9.93141 32.3511 11.8979 36.7432 15.0771 39.9225C18.2564 43.1018 22.6485 45.0682 27.4998 45.0682C32.3511 45.0682 36.7433 43.1018 39.9225 39.9225C43.1018 36.7432 45.0682 32.3511 45.0682 27.4998C45.0682 22.6485 43.1018 18.2564 39.9225 15.0771C36.7433 11.8979 32.3511 9.93138 27.4998 9.93138ZM38.7073 16.2924C35.8391 13.4242 31.8766 11.6501 27.4998 11.6501C23.123 11.6501 19.1606 13.4242 16.2924 16.2924C13.4242 19.1605 11.6502 23.123 11.6502 27.4998C11.6502 31.8766 13.4242 35.8391 16.2924 38.7072C19.1606 41.5754 23.123 43.3495 27.4998 43.3495C31.8766 43.3495 35.8391 41.5754 38.7073 38.7073C41.5754 35.8392 43.3494 31.8767 43.3494 27.4999C43.3495 23.123 41.5754 19.1605 38.7073 16.2924Z" fill="#2600FF"/>
</svg>
