<svg width="20" height="20" viewBox="0 0 20 20" fill="none" xmlns="http://www.w3.org/2000/svg">
<path d="M18.3162 9.50834C18.0329 4.67501 13.6413 0.950018 8.58292 1.78335C5.09959 2.35835 2.30793 5.18333 1.76626 8.66667C1.44959 10.6833 1.86628 12.5917 2.77461 14.1667L2.03293 16.925C1.86627 17.55 2.44125 18.1167 3.05792 17.9417L5.77459 17.1917C7.00792 17.9167 8.44959 18.3333 9.99125 18.3333C14.6913 18.3333 18.5912 14.1917 18.3162 9.50834ZM14.0663 13.1C13.9913 13.25 13.8996 13.3917 13.7829 13.525C13.5746 13.75 13.3496 13.9167 13.0996 14.0167C12.8496 14.125 12.5746 14.175 12.2829 14.175C11.8579 14.175 11.3996 14.075 10.9246 13.8667C10.4413 13.6584 9.96628 13.3833 9.49128 13.0417C9.00794 12.6917 8.55793 12.3 8.1246 11.875C7.69126 11.4417 7.30791 10.9833 6.95791 10.5083C6.61624 10.0333 6.34126 9.55833 6.14126 9.08333C5.94126 8.60833 5.84127 8.15001 5.84127 7.71668C5.84127 7.43335 5.89127 7.15835 5.99127 6.90835C6.09127 6.65001 6.24961 6.41668 6.47461 6.20835C6.74128 5.94168 7.03293 5.81668 7.34126 5.81668C7.45793 5.81668 7.57457 5.84168 7.68291 5.89168C7.79124 5.94168 7.89126 6.01668 7.96626 6.12501L8.93291 7.49166C9.00791 7.6 9.06625 7.69167 9.09958 7.78334C9.14125 7.875 9.15792 7.95833 9.15792 8.04167C9.15792 8.14167 9.1246 8.24168 9.06627 8.34168C9.00793 8.44168 8.93291 8.54167 8.83291 8.64167L8.51624 8.975C8.46624 9.025 8.44961 9.07501 8.44961 9.14167C8.44961 9.17501 8.45791 9.20834 8.46624 9.24167C8.48291 9.275 8.49127 9.30001 8.49961 9.32501C8.57461 9.46667 8.70792 9.64166 8.89125 9.85833C9.08292 10.075 9.28295 10.3 9.49962 10.5167C9.72462 10.7417 9.94127 10.9417 10.1663 11.1333C10.3829 11.3167 10.5662 11.4417 10.7079 11.5167C10.7329 11.525 10.7579 11.5417 10.7829 11.55C10.8163 11.5667 10.8496 11.5667 10.8913 11.5667C10.9663 11.5667 11.0163 11.5417 11.0663 11.4917L11.3829 11.175C11.4912 11.0667 11.5913 10.9917 11.6829 10.9417C11.7829 10.8833 11.8746 10.85 11.9829 10.85C12.0663 10.85 12.1496 10.8667 12.2413 10.9083C12.3329 10.95 12.4329 11 12.5329 11.075L13.9163 12.0583C14.0246 12.1333 14.0996 12.225 14.1496 12.325C14.1912 12.4333 14.2163 12.5333 14.2163 12.65C14.1663 12.7917 14.1329 12.95 14.0663 13.1Z" fill="#2CB742"/>
</svg>
